<?xml version="1.0" encoding="utf-8"?>
<svg xmlns="http://www.w3.org/2000/svg" viewBox="0 0 500 500" style="shape-rendering: geometricprecision;" xmlns:bx="https://boxy-svg.com" width="500px" height="500px"><defs><bx:export><bx:file format="svg" href="#Livello_x0020_1" normalization="web-static"/><bx:file format="svg" href="#_56189328" path="Untitled 2.svg"/></bx:export></defs><g id="Livello_x0020_1" transform="matrix(2.035408, 0, 0.007241, 2.035408, 33.345142, 37.933247)" style=""><path class="fil0" style="fill: none;" d="M 0 -0.775 L 220 -0.775 L 0 -0.775 Z"/><g id="_46356144"><polygon id="_56776968" class="fil2" points="105.634 -16.978 111.84 -16.829 117.954 -16.36 123.98 -15.592 129.912 -14.524 135.74 -13.183 141.464 -11.556 147.052 -9.659 152.534 -7.505 157.866 -5.095 163.06 -2.43 168.107 0.461 173.001 3.595 177.717 6.969 182.265 10.538 186.646 14.333 190.834 18.31 194.809 22.496 198.606 26.878 202.175 31.426 205.548 36.14 208.68 41.036 211.571 46.081 214.237 51.277 216.648 56.61 218.801 62.09 220.7 67.679 222.325 73.401 223.666 79.23 224.736 85.164 225.504 91.188 225.971 97.304 226.122 103.508 225.971 109.712 225.504 115.829 224.736 121.853 223.666 127.786 222.325 133.615 220.7 139.338 218.801 144.926 216.648 150.407 214.237 155.739 211.571 160.934 208.68 165.98 205.548 170.875 202.175 175.59 198.606 180.137 194.809 184.52 190.834 188.708 186.646 192.699 182.265 196.477 177.717 200.047 173.001 203.421 168.107 206.553 163.06 209.445 157.866 212.113 152.534 214.522 147.052 216.675 141.464 218.574 135.74 220.2 129.912 221.54 123.98 222.609 117.954 223.376 111.84 223.843 105.634 223.993 99.431 223.843 93.314 223.376 87.29 222.609 81.356 221.54 75.526 220.2 69.804 218.574 64.217 216.675 58.734 214.522 53.403 212.113 48.207 209.445 43.163 206.553 38.268 203.421 33.554 200.047 29.005 196.477 24.622 192.699 20.436 188.708 16.445 184.52 12.664 180.137 9.095 175.59 5.721 170.875 2.588 165.98 -0.304 160.934 -2.97 155.739 -5.378 150.407 -7.532 144.926 -9.43 139.338 -11.057 133.615 -12.397 127.786 -13.466 121.853 -14.235 115.829 -14.701 109.712 -14.852 103.508 -14.701 97.304 -14.235 91.188 -13.466 85.164 -12.397 79.23 -11.057 73.401 -9.43 67.679 -7.532 62.09 -5.378 56.61 -2.97 51.277 -0.304 46.081 2.588 41.036 5.721 36.14 9.095 31.426 12.664 26.878 16.445 22.496 20.436 18.31 24.622 14.333 29.005 10.538 33.554 6.969 38.268 3.595 43.163 0.461 48.207 -2.43 53.403 -5.095 58.734 -7.505 64.217 -9.659 69.804 -11.556 75.526 -13.183 81.356 -14.524 87.29 -15.592 93.314 -16.36 99.431 -16.829" style="fill: rgb(204, 0, 0);"/><polygon id="_56189328" class="fil3" points="105.634 -14.314 111.689 -14.162 117.682 -13.71 123.573 -12.957 129.371 -11.919 135.079 -10.608 140.665 -9.012 146.148 -7.16 151.496 -5.051 156.706 -2.686 161.795 -0.096 166.721 2.752 171.51 5.808 176.119 9.092 180.578 12.6 184.854 16.305 188.936 20.207 192.836 24.288 196.542 28.566 200.05 33.023 203.333 37.632 206.392 42.421 209.237 47.346 211.829 52.436 214.192 57.648 216.302 62.996 218.154 68.476 219.751 74.063 221.059 79.772 222.101 85.57 222.853 91.46 223.304 97.453 223.455 103.508 223.304 109.578 222.853 115.557 222.101 121.445 221.059 127.244 219.751 132.951 218.154 138.539 216.302 144.022 214.192 149.369 211.829 154.58 209.237 159.67 206.392 164.593 203.333 169.384 200.05 173.993 196.542 178.452 192.836 182.727 188.936 186.809 184.854 190.71 180.578 194.416 176.119 197.924 171.51 201.208 166.721 204.266 161.795 207.111 156.706 209.702 151.496 212.066 146.148 214.175 140.665 216.027 135.079 217.623 129.371 218.934 123.573 219.974 117.682 220.726 111.689 221.179 105.634 221.329 99.565 221.179 93.585 220.726 87.697 219.974 81.898 218.934 76.19 217.623 70.603 216.027 65.121 214.175 59.774 212.066 54.563 209.702 49.471 207.111 44.547 204.266 39.757 201.208 35.15 197.924 30.692 194.416 26.415 190.71 22.333 186.809 18.432 182.727 14.728 178.452 11.218 173.993 7.935 169.384 4.877 164.593 2.03 159.67 -0.559 154.58 -2.925 149.369 -5.033 144.022 -6.886 138.539 -8.482 132.951 -9.792 127.244 -10.83 121.445 -11.585 115.557 -12.036 109.578 -12.187 103.508 -12.036 97.453 -11.585 91.46 -10.83 85.57 -9.792 79.772 -8.482 74.063 -6.886 68.476 -5.033 62.996 -2.925 57.648 -0.559 52.436 2.03 47.346 4.877 42.421 7.935 37.632 11.218 33.023 14.728 28.566 18.432 24.288 22.333 20.207 26.415 16.305 30.692 12.6 35.15 9.092 39.757 5.808 44.547 2.752 49.471 -0.096 54.563 -2.686 59.774 -5.051 65.121 -7.16 70.603 -9.012 76.19 -10.608 81.898 -11.919 87.697 -12.957 93.585 -13.71 99.565 -14.162" style="fill: rgb(255, 255, 255);"/><polygon id="_56559336" class="fil2" points="105.634 24.605 109.701 24.709 113.707 25.011 117.652 25.508 121.538 26.216 125.349 27.089 129.101 28.16 132.761 29.393 136.343 30.809 139.837 32.391 143.241 34.138 146.541 36.035 149.747 38.083 152.835 40.282 155.816 42.633 158.679 45.102 161.42 47.723 164.04 50.463 166.51 53.326 168.861 56.308 171.059 59.394 173.107 62.603 175.003 65.901 176.752 69.304 178.333 72.799 179.749 76.383 180.984 80.043 182.053 83.794 182.925 87.603 183.634 91.49 184.133 95.436 184.432 99.441 184.539 103.508 184.432 107.574 184.133 111.58 183.634 115.525 182.925 119.412 182.053 123.223 180.984 126.974 179.749 130.634 178.333 134.217 176.752 137.712 175.003 141.115 173.107 144.414 171.059 147.621 168.861 150.71 166.51 153.692 164.04 156.553 161.42 159.293 158.679 161.913 155.816 164.385 152.835 166.734 149.747 168.933 146.541 170.979 143.241 172.893 139.837 174.625 136.343 176.206 132.761 177.622 129.101 178.858 125.349 179.927 121.538 180.801 117.652 181.508 113.707 182.004 109.701 182.306 105.634 182.412 101.569 182.306 97.561 182.004 93.615 181.508 89.73 180.801 85.92 179.927 82.17 178.858 78.51 177.622 74.925 176.206 71.431 174.625 68.028 172.893 64.73 170.979 61.52 168.933 58.435 166.734 55.451 164.385 52.591 161.913 49.849 159.293 47.23 156.553 44.759 153.692 42.408 150.71 40.21 147.621 38.162 144.414 36.249 141.115 34.517 137.712 32.936 134.217 31.521 130.634 30.285 126.974 29.216 123.223 28.342 119.412 27.634 115.525 27.137 111.58 26.836 107.574 26.731 103.508 26.836 99.441 27.137 95.436 27.634 91.49 28.342 87.603 29.216 83.794 30.285 80.043 31.521 76.383 32.936 72.799 34.517 69.304 36.249 65.901 38.162 62.603 40.21 59.394 42.408 56.308 44.759 53.326 47.23 50.463 49.849 47.723 52.591 45.102 55.451 42.633 58.435 40.282 61.52 38.083 64.73 36.035 68.028 34.138 71.431 32.391 74.925 30.809 78.51 29.393 82.17 28.16 85.92 27.089 89.73 26.216 93.615 25.508 97.561 25.011 101.569 24.709" style="fill: rgb(204, 0, 0);"/><polygon id="_57286632" class="fil3" points="105.634 26.728 109.581 26.818 113.482 27.119 117.322 27.617 121.101 28.279 124.823 29.138 128.465 30.176 132.035 31.381 135.515 32.767 138.919 34.304 142.233 35.99 145.441 37.843 148.558 39.846 151.57 41.985 154.476 44.26 157.263 46.669 159.928 49.213 162.475 51.88 164.883 54.665 167.157 57.573 169.297 60.585 171.298 63.702 173.152 66.91 174.838 70.224 176.375 73.627 177.762 77.107 178.965 80.676 180.004 84.321 180.864 88.041 181.525 91.821 182.023 95.661 182.323 99.562 182.414 103.508 182.323 107.455 182.023 111.355 181.525 115.196 180.864 118.976 180.004 122.696 178.965 126.339 177.762 129.91 176.375 133.388 174.838 136.792 173.152 140.107 171.298 143.314 169.297 146.431 167.157 149.445 164.883 152.35 162.475 155.137 159.928 157.803 157.263 160.348 154.476 162.757 151.57 165.032 148.558 167.171 145.441 169.174 142.233 171.026 138.919 172.713 135.515 174.249 132.035 175.634 128.465 176.839 124.823 177.878 121.101 178.737 117.322 179.399 113.482 179.896 109.581 180.197 105.634 180.287 101.688 180.197 97.788 179.896 93.948 179.399 90.166 178.737 86.447 177.878 82.801 176.839 79.233 175.634 75.753 174.249 72.351 172.713 69.036 171.026 65.829 169.174 62.711 167.171 59.699 165.032 56.792 162.757 54.007 160.348 51.339 157.803 48.795 155.137 46.386 152.35 44.11 149.445 41.973 146.431 39.969 143.314 38.117 140.107 36.43 136.792 34.894 133.388 33.507 129.91 32.304 126.339 31.264 122.696 30.405 118.976 29.743 115.196 29.245 111.355 28.944 107.455 28.855 103.508 28.944 99.562 29.245 95.661 29.743 91.821 30.405 88.041 31.264 84.321 32.304 80.676 33.507 77.107 34.894 73.627 36.43 70.224 38.117 66.91 39.969 63.702 41.973 60.585 44.11 57.573 46.386 54.665 48.795 51.88 51.339 49.213 54.007 46.669 56.792 44.26 59.699 41.985 62.711 39.846 65.829 37.843 69.036 35.99 72.351 34.304 75.753 32.767 79.233 31.381 82.801 30.176 86.447 29.138 90.166 28.279 93.948 27.617 97.788 27.119 101.688 26.818" style="fill: rgb(255, 255, 255);"/><g style="" transform="matrix(1.490254, 0, 0, 1.490254, -55.653137, -38.791607)"><polygon id="_55573328" class="fil2" points="114.373,158.782 110.573,162.774 112.028,169.222 108.228,165.23 104.428,169.222 105.884,162.774 102.084,158.782 106.773,158.782 108.228,152.344 109.683,158.782 " style="fill: rgb(204, 0, 0);"/><path id="_555733281" class="fil1" d="M110.494 162.791l0.0202 -0.0733 3.7999 -3.992 0.1168 0.1112 -3.7999 3.992 -0.137 -0.0379zm0 0l-0.0095 -0.0421 0.0297 -0.0312 -0.0202 0.0733zm1.4755 6.4857l-0.0202 -0.0379 -1.4553 -6.4478 0.1572 -0.0354 1.4553 6.4478 -0.137 0.0733zm0.137 -0.0733l0.0643 0.2847 -0.2013 -0.2114 0.137 -0.0733zm-3.9369 -4.03l0.1168 0 3.7999 3.9921 -0.1168 0.1112 -3.7999 -3.9921 0 -0.1112zm0 0l0.0584 -0.0614 0.0584 0.0614 -0.1168 0zm-3.8201 4.03l0.0202 -0.0379 3.7999 -3.9921 0.1168 0.1112 -3.7999 3.9921 -0.137 -0.0733zm0.137 0.0733l-0.2013 0.2114 0.0643 -0.2847 0.137 0.0733zm1.4553 -6.559l0.0202 0.0733 -1.4553 6.4478 -0.1572 -0.0354 1.4553 -6.4478 0.137 -0.0379zm0 0l0.0297 0.0312 -0.0095 0.0421 -0.0202 -0.0733zm-3.8584 -4.0172l0.0584 0.0252 3.8 3.992 -0.1168 0.1112 -3.8 -3.992 0.0584 -0.1364zm-0.0584 0.1364l-0.1298 -0.1364 0.1882 0 -0.0584 0.1364zm4.8263 -0.0379l-0.0786 0.0631 -4.6893 0 0 -0.1616 4.6893 0 0.0786 0.0985zm0 0l-0.0143 0.0631 -0.0643 0 0.0786 -0.0631zm1.4553 -6.473l0 0.0354 -1.4553 6.4376 -0.1572 -0.0354 1.4553 -6.4376 0.1572 0zm-0.1572 0l0.0786 -0.3477 0.0786 0.3477 -0.1572 0zm1.5338 6.5361l-0.0786 -0.0631 -1.4552 -6.4376 0.1572 -0.0354 1.4552 6.4376 -0.0786 0.0985zm0 0l-0.0643 0 -0.0143 -0.0631 0.0786 0.0631zm4.7477 -0.0252l-0.0584 0.0252 -4.6893 0 0 -0.1616 4.6893 0 0.0584 0.1364zm-0.0584 -0.1364l0.1882 0 -0.1298 0.1364 -0.0584 -0.1364z" style="fill: rgb(204, 0, 0); fill-rule: nonzero;"/></g><polygon class="fil2 str0" points="105.634 202.141 107.802 197.834 105.634 188.241" style="fill: rgb(204, 0, 0); stroke: rgb(204, 0, 0); stroke-width: 0.0762px;"/><polygon class="fil2" points="96.478 197.834 103.466 197.834 105.634 202.141" style="fill: rgb(204, 0, 0);"/><polygon class="fil2" points="109.129 203.782 114.793 197.834 105.634 202.141" style="fill: rgb(204, 0, 0);"/><polygon class="fil2" points="111.297 213.391 105.634 207.443 105.634 202.141" style="fill: rgb(204, 0, 0);"/><polygon class="fil2" points="99.971 213.391 102.141 203.782 105.634 202.141" style="fill: rgb(204, 0, 0);"/><polygon class="fil2" points="68.48 207.639 70.347 199.746 70.754 199.881 70.679 200.773 70.679 201.598 70.679 202.427 70.754 203.106 70.814 203.799 70.965 204.416 71.16 204.958 71.371 205.515 71.582 205.922 71.853 206.345 72.199 206.751 72.471 207.097 72.877 207.368 73.223 207.578 73.705 207.774 74.112 207.926 74.535 208.061 74.941 208.061 75.286 208.12 75.693 208.061 76.115 207.985 76.521 207.926 76.944 207.774 77.274 207.639 77.696 207.368 78.104 207.097 78.525 206.825 78.856 206.403 79.278 205.997 79.625 205.574 80.031 205.035 80.377 204.478 80.724 203.934 81.055 203.242 81.402 202.562 81.748 201.81 82.02 201.042 82.366 200.229 82.637 199.324 82.924 198.436 83.119 197.684 83.254 196.929 83.465 196.163 83.54 195.485 83.675 194.792 83.735 194.099 83.735 193.481 83.735 192.864 83.735 192.245 83.675 191.705 83.6 191.147 83.465 190.605 83.33 190.124 83.119 189.641 82.924 189.159 82.712 188.752 82.441 188.406 82.095 188.059 81.825 187.714 81.477 187.442 81.131 187.172 80.724 186.959 80.302 186.824 79.896 186.689 79.473 186.553 79.143 186.478 78.721 186.478 78.374 186.478 77.967 186.553 77.62 186.615 77.274 186.689 76.868 186.824 76.521 187.021 76.115 187.232 75.693 187.503 75.211 187.925 74.805 188.27 74.262 188.752 73.78 189.295 73.223 189.851 72.952 189.431 73.434 188.752 73.978 188.196 74.459 187.652 75.016 187.172 75.497 186.689 75.979 186.342 76.521 185.996 77.003 185.724 77.485 185.515 78.043 185.379 78.525 185.244 79.067 185.168 79.548 185.168 80.091 185.244 80.647 185.303 81.191 185.438 81.673 185.588 82.095 185.785 82.576 185.996 82.982 186.207 83.33 186.478 83.735 186.824 84.083 187.096 84.353 187.503 84.639 187.847 84.91 188.27 85.183 188.752 85.392 189.219 85.589 189.703 85.8 190.259 85.934 190.8 86.07 191.358 86.221 192.322 86.282 193.211 86.357 194.174 86.282 195.138 86.221 196.102 86.07 197.126 85.8 198.165 85.528 199.265 85.319 200.079 84.971 200.906 84.699 201.66 84.353 202.427 83.946 203.181 83.6 203.858 83.119 204.551 82.712 205.169 82.231 205.786 81.748 206.403 81.191 206.885 80.724 207.368 80.166 207.774 79.625 208.196 79.067 208.542 78.45 208.813 77.892 209.025 77.35 209.219 76.733 209.355 76.175 209.432 75.634 209.432 75.077 209.432 74.535 209.355 73.978 209.219 73.57 209.084 73.163 208.874 72.742 208.677 72.334 208.407 71.988 208.12 71.643 207.774 71.296 207.443 70.965 207.021 70.754 206.825 70.617 206.615 70.483 206.479 70.347 206.479 70.197 206.403 69.999 206.479 69.865 206.479 69.714 206.615 69.518 206.825 69.306 207.097 69.097 207.368 68.9 207.774" style="fill: rgb(204, 0, 0);"/><path class="fil2" d="M 55.015 201.598 L 54.668 201.388 L 54.322 201.178 L 53.976 200.906 L 53.704 200.695 L 53.433 200.424 L 53.163 200.079 L 52.952 199.806 L 52.741 199.46 L 52.546 199.054 L 52.334 198.706 L 52.199 198.3 L 52.064 197.88 L 51.927 197.397 L 51.778 196.929 L 51.716 196.448 L 51.641 195.966 L 51.58 195.408 L 51.58 194.867 L 51.58 194.31 L 51.58 193.827 L 51.641 193.286 L 51.716 192.728 L 51.778 192.185 L 51.927 191.628 L 51.989 191.086 L 52.199 190.469 L 52.334 189.912 L 52.546 189.369 L 52.741 188.812 L 53.027 188.195 L 53.298 187.652 L 53.569 187.02 L 53.916 186.478 L 54.186 185.86 L 54.532 185.303 L 54.879 184.82 L 55.225 184.279 L 55.633 183.796 L 55.979 183.315 L 56.385 182.909 L 56.732 182.487 L 57.139 182.08 L 57.559 181.734 L 57.967 181.327 L 58.449 180.98 L 58.856 180.71 L 59.338 180.363 L 59.759 180.152 L 60.241 179.881 L 60.723 179.67 L 61.13 179.474 L 61.612 179.324 L 62.018 179.188 L 62.5 179.053 L 62.92 178.993 L 63.33 178.918 L 63.736 178.918 L 64.157 178.918 L 64.564 178.993 L 64.986 178.993 L 65.392 179.128 L 65.738 179.264 L 66.144 179.399 L 66.491 179.535 L 66.899 179.746 L 67.244 180.017 L 67.591 180.227 L 67.862 180.498 L 68.132 180.769 L 68.419 181.116 L 68.691 181.386 L 68.9 181.734 L 69.097 182.141 L 69.306 182.487 L 69.443 182.909 L 69.579 183.39 L 69.714 183.796 L 69.865 184.279 L 69.924 184.76 L 69.999 185.243 L 70.06 185.785 L 70.06 186.342 L 70.06 186.884 L 70.06 187.366 L 69.999 187.923 L 69.924 188.465 L 69.865 189.083 L 69.714 189.641 L 69.579 190.183 L 69.443 190.74 L 69.232 191.358 L 69.036 191.9 L 68.766 192.516 L 68.555 193.15 L 68.284 193.768 L 67.937 194.386 L 67.591 195.001 L 67.244 195.543 L 66.899 196.161 L 66.566 196.718 L 66.22 197.201 L 65.798 197.684 L 65.392 198.165 L 64.986 198.647 L 64.564 199.054 L 64.157 199.46 L 63.736 199.806 L 63.268 200.153 L 62.786 200.499 L 62.304 200.847 L 61.822 201.117 L 61.34 201.388 L 60.919 201.523 L 60.512 201.734 L 60.106 201.871 L 59.624 202.006 L 59.203 202.141 L 58.794 202.216 L 58.449 202.216 L 58.043 202.277 L 57.62 202.277 L 57.214 202.216 L 56.868 202.216 L 56.46 202.141 L 56.115 202.006 L 55.708 201.946 L 55.36 201.734 L 55.015 201.598 Z M 55.767 200.56 L 56.04 200.635 L 56.251 200.772 L 56.521 200.847 L 56.808 200.906 L 57.078 200.906 L 57.289 200.981 L 57.559 200.981 L 57.832 200.906 L 58.102 200.906 L 58.388 200.847 L 58.659 200.772 L 58.931 200.635 L 59.203 200.56 L 59.488 200.424 L 59.759 200.228 L 60.031 200.079 L 60.377 199.806 L 60.723 199.535 L 61.053 199.264 L 61.401 198.918 L 61.746 198.571 L 62.094 198.225 L 62.439 197.819 L 62.786 197.397 L 63.118 196.991 L 63.464 196.507 L 63.811 196.026 L 64.157 195.485 L 64.428 194.927 L 64.774 194.386 L 65.121 193.768 L 65.467 193.15 L 65.738 192.516 L 66.085 191.9 L 66.355 191.282 L 66.566 190.665 L 66.838 190.047 L 67.033 189.506 L 67.244 188.947 L 67.381 188.406 L 67.517 187.847 L 67.666 187.307 L 67.801 186.824 L 67.862 186.267 L 67.937 185.785 L 67.998 185.303 L 67.998 184.82 L 67.998 184.414 L 67.937 183.721 L 67.801 183.104 L 67.666 182.563 L 67.456 182.08 L 67.185 181.673 L 66.838 181.252 L 66.417 180.98 L 65.933 180.71 L 65.738 180.573 L 65.467 180.423 L 65.18 180.363 L 64.91 180.287 L 64.638 180.287 L 64.368 180.287 L 64.081 180.287 L 63.811 180.287 L 63.464 180.363 L 63.194 180.423 L 62.92 180.498 L 62.575 180.634 L 62.304 180.71 L 61.958 180.904 L 61.686 181.041 L 61.34 181.252 L 61.053 181.461 L 60.723 181.734 L 60.377 182.004 L 60.106 182.291 L 59.759 182.622 L 59.488 182.968 L 59.141 183.315 L 58.794 183.721 L 58.524 184.144 L 58.177 184.625 L 57.832 185.107 L 57.559 185.588 L 57.214 186.132 L 56.868 186.689 L 56.596 187.307 L 56.251 187.923 L 55.904 188.54 L 55.633 189.219 L 55.285 189.851 L 55.09 190.469 L 54.804 191.086 L 54.608 191.704 L 54.397 192.245 L 54.186 192.803 L 54.051 193.345 L 53.916 193.902 L 53.78 194.386 L 53.704 194.927 L 53.645 195.408 L 53.645 195.891 L 53.569 196.298 L 53.569 196.718 L 53.645 197.397 L 53.78 198.029 L 53.916 198.571 L 54.186 199.054 L 54.457 199.535 L 54.879 199.881 L 55.285 200.228 L 55.767 200.56 Z" style="fill: rgb(204, 0, 0);"/><polygon class="fil2" points="43.749 195.349 40.24 192.594 43.884 171.974 35.014 182.968 34.744 183.39 34.397 183.798 34.186 184.144 33.99 184.49 33.78 184.761 33.645 184.973 33.569 185.244 33.569 185.379 33.507 185.588 33.569 185.785 33.569 185.996 33.645 186.207 33.704 186.403 33.856 186.553 33.99 186.689 34.186 186.885 34.608 187.232 34.186 187.714 29.727 184.144 30.135 183.661 30.617 184.008 30.828 184.144 31.023 184.279 31.234 184.34 31.445 184.414 31.656 184.414 31.927 184.34 32.122 184.279 32.333 184.205 32.469 184.144 32.679 184.008 32.89 183.798 33.087 183.586 33.371 183.316 33.645 183.046 33.915 182.697 34.186 182.291 47.107 166.207 47.454 166.478 43.599 188.676 53.027 176.855 53.358 176.447 53.645 176.102 53.841 175.694 54.051 175.41 54.262 175.137 54.397 174.867 54.457 174.656 54.532 174.444 54.532 174.249 54.532 174.038 54.457 173.827 54.397 173.693 54.322 173.495 54.186 173.285 54.051 173.15 53.841 173.014 53.433 172.667 53.841 172.11 58.313 175.694 57.907 176.237 57.425 175.831 57.214 175.694 57.003 175.619 56.808 175.484 56.596 175.484 56.385 175.484 56.19 175.484 55.904 175.544 55.708 175.694 55.558 175.755 55.36 175.891 55.15 176.025 54.94 176.237 54.668 176.507 54.457 176.855 54.126 177.126 53.841 177.548 43.193 190.8 43.193 191.147 43.132 191.493 43.132 191.765 43.056 192.051 43.056 192.245 43.056 192.458 43.056 192.667 43.056 192.803 43.056 193.075 43.193 193.345 43.268 193.694 43.463 194.038 43.538 194.25 43.674 194.444 43.884 194.656 44.157 194.867" style="fill: rgb(204, 0, 0);"/><polygon class="fil2" points="15.088 167.23 15.631 166.824 15.978 167.035 16.324 167.171 16.535 167.23 16.73 167.306 16.865 167.306 17.077 167.306 17.348 167.23 17.694 167.23 17.965 167.171 18.313 167.035 18.658 166.959 19.064 166.824 19.487 166.613 19.893 166.478 39.487 157.684 39.757 158.028 27.529 176.161 27.317 176.507 27.108 176.793 26.972 177.065 26.836 177.261 26.702 177.471 26.566 177.684 26.491 177.819 26.491 177.954 26.354 178.226 26.295 178.509 26.295 178.784 26.295 179.053 26.295 179.324 26.43 179.611 26.566 179.943 26.702 180.229 26.218 180.635 21.896 175.484 22.438 175.062 22.649 175.212 22.845 175.41 23.056 175.544 23.191 175.619 23.403 175.694 23.538 175.755 23.674 175.831 23.809 175.831 24.096 175.831 24.366 175.755 24.577 175.619 24.848 175.41 25.043 175.273 25.195 175.062 25.391 174.867 25.676 174.595 25.873 174.309 26.143 173.962 26.354 173.631 26.626 173.209 34.955 160.904 21.61 166.883 21.128 167.095 20.722 167.306 20.375 167.517 20.029 167.652 19.697 167.847 19.412 167.983 19.216 168.134 19.064 168.27 18.87 168.466 18.732 168.676 18.597 168.888 18.523 169.158 18.448 169.504 18.523 169.776 18.597 170.12 18.732 170.53 18.794 170.605 18.87 170.739 18.313 171.147" style="fill: rgb(204, 0, 0);"/><polygon class="fil2" points="11.369 158.24 19.969 153.496 18.176 150.333 18.041 150.06 17.829 149.775 17.694 149.58 17.498 149.369 17.287 149.233 17.152 149.158 16.942 149.023 16.73 149.023 16.459 148.961 16.188 149.023 15.843 149.023 15.495 149.158 15.088 149.233 14.668 149.428 14.259 149.58 13.777 149.85 13.568 149.428 21.128 145.243 21.414 145.649 20.992 145.858 20.722 146.13 20.375 146.343 20.163 146.551 19.969 146.687 19.757 146.823 19.622 146.957 19.487 147.094 19.276 147.306 19.14 147.575 19.006 147.861 18.93 148.194 18.93 148.329 18.93 148.48 19.006 148.676 19.006 148.886 19.064 149.097 19.14 149.294 19.276 149.504 19.412 149.714 21.128 152.878 28.282 148.961 28.628 148.751 28.975 148.54 29.245 148.405 29.442 148.268 29.654 148.132 29.789 148.058 29.924 147.923 29.999 147.861 30.135 147.711 30.21 147.575 30.27 147.44 30.345 147.306 30.345 147.094 30.345 146.899 30.21 146.687 30.074 146.417 28.764 143.932 28.553 143.66 28.417 143.39 28.282 143.118 28.071 142.906 27.935 142.696 27.8 142.56 27.665 142.425 27.529 142.29 27.183 142.154 26.836 141.943 26.43 141.883 25.948 141.807 25.525 141.807 25.195 141.807 24.773 141.807 24.29 141.807 23.809 141.883 23.267 141.943 22.71 142.019 22.167 142.08 21.955 141.672 28.071 139.878 34.186 151.011 33.569 151.356 33.297 150.875 33.162 150.605 32.951 150.392 32.679 150.256 32.408 150.06 32.197 149.985 31.927 149.985 31.656 149.985 31.37 150.06 31.234 150.12 31.023 150.196 30.828 150.256 30.557 150.392 30.27 150.526 29.924 150.678 29.592 150.875 29.245 151.085 15.088 158.858 14.606 159.128 14.125 159.399 13.777 159.609 13.432 159.881 13.161 160.092 12.951 160.227 12.755 160.438 12.678 160.573 12.543 160.708 12.543 160.904 12.468 161.116 12.468 161.326 12.468 161.537 12.543 161.733 12.619 161.945 12.755 162.154 13.026 162.697 12.408 163.043 6.294 151.913 10.962 149.097 11.234 149.504 10.826 149.775 10.48 150.06 10.133 150.333 9.863 150.526 9.651 150.739 9.457 150.949 9.245 151.161 9.109 151.297 8.899 151.627 8.764 151.973 8.628 152.32 8.552 152.667 8.552 152.803 8.628 152.937 8.689 153.148 8.689 153.36 8.839 153.556 8.899 153.766 9.034 154.037 9.17 154.309" style="fill: rgb(204, 0, 0);"/><polygon class="fil2" points="3.809 146.957 2.437 142.772 16.669 127.438 3.266 131.837 2.784 132.049 2.303 132.185 1.895 132.319 1.549 132.529 1.279 132.666 0.992 132.801 0.856 132.937 0.721 133.073 0.586 133.222 0.45 133.418 0.375 133.63 0.375 133.766 0.315 133.977 0.315 134.172 0.375 134.383 0.45 134.653 0.586 135.21 -0.033 135.422 -1.824 129.984 -1.208 129.775 -0.997 130.331 -0.921 130.542 -0.785 130.739 -0.65 130.949 -0.515 131.084 -0.304 131.219 -0.108 131.296 0.103 131.355 0.375 131.432 0.511 131.432 0.721 131.432 0.992 131.355 1.338 131.296 1.685 131.219 2.03 131.084 2.437 131.024 2.92 130.813 22.513 124.353 22.649 124.759 7.392 141.251 21.685 136.52 22.167 136.37 22.649 136.175 22.997 136.039 23.327 135.903 23.674 135.752 23.884 135.617 24.096 135.482 24.231 135.346 24.366 135.137 24.426 135.002 24.502 134.804 24.577 134.594 24.577 134.383 24.577 134.172 24.577 133.977 24.502 133.766 24.29 133.222 24.983 133.012 26.777 138.434 26.143 138.645 25.948 138.103 25.873 137.892 25.736 137.681 25.601 137.471 25.466 137.335 25.254 137.199 25.043 137.063 24.848 137.004 24.577 137.004 24.366 137.004 24.155 137.004 23.884 137.004 23.613 137.063 23.267 137.139 22.845 137.275 22.438 137.41 22.031 137.546 5.872 142.906 5.601 143.178 5.389 143.39 5.254 143.599 5.058 143.796 4.908 144.006 4.772 144.143 4.712 144.278 4.637 144.414 4.502 144.7 4.441 144.97 4.366 145.316 4.29 145.724 4.29 145.933 4.29 146.13 4.366 146.478 4.441 146.747" style="fill: rgb(204, 0, 0);"/><polygon class="fil2" points="-4.506 111.295 20.029 118.991 19.14 112.318 19.064 111.987 19.006 111.641 18.87 111.295 18.732 111.023 18.523 110.738 18.313 110.466 18.116 110.27 17.829 110.059 17.498 109.923 17.152 109.788 16.669 109.636 16.188 109.502 15.631 109.366 14.952 109.305 14.259 109.23 13.507 109.171 13.568 108.749 20.163 108.689 21.896 121.943 21.262 122.078 -2.638 114.516 -1.96 119.744 -1.884 120.014 -1.824 120.363 -1.749 120.571 -1.689 120.844 -1.614 121.053 -1.478 121.265 -1.403 121.401 -1.268 121.537 -0.997 121.807 -0.65 122.018 -0.304 122.155 0.103 122.289 0.315 122.364 0.586 122.364 0.931 122.425 1.279 122.425 1.685 122.425 2.166 122.425 2.648 122.425 3.19 122.425 3.266 122.905 -2.983 123.388" style="fill: rgb(204, 0, 0);"/><polygon class="fil2" points="19.622 99.135 20.315 99.135 20.315 106.138 19.622 106.138 19.622 105.596 19.622 105.309 19.548 105.115 19.487 104.903 19.412 104.693 19.276 104.496 19.064 104.346 18.93 104.211 18.732 104.074 18.523 104.013 18.313 103.938 18.041 103.938 17.694 103.863 17.348 103.803 16.865 103.803 16.399 103.803 15.918 103.803 -0.169 103.728 -0.65 103.728 -1.072 103.728 -1.403 103.728 -1.749 103.728 -2.02 103.803 -2.307 103.803 -2.502 103.803 -2.638 103.863 -2.849 103.938 -3.059 104.074 -3.27 104.211 -3.465 104.346 -3.676 104.631 -3.813 104.903 -3.888 105.174 -3.888 105.445 -3.888 106.063 -4.566 106.063 -4.566 99 -3.888 99 -3.888 99.616 -3.888 99.812 -3.813 100.099 -3.738 100.295 -3.676 100.429 -3.541 100.64 -3.406 100.776 -3.195 100.913 -2.983 101.047 -2.788 101.123 -2.577 101.198 -2.307 101.259 -1.96 101.333 -1.614 101.333 -1.208 101.395 -0.725 101.395 -0.169 101.395 15.918 101.47 16.324 101.47 16.73 101.47 17.152 101.47 17.498 101.395 17.769 101.395 18.041 101.395 18.251 101.333 18.386 101.333 18.597 101.259 18.794 101.123 19.006 100.986 19.216 100.776 19.351 100.505 19.487 100.295 19.622 99.947 19.622 99.677" style="fill: rgb(204, 0, 0);"/><path class="fil2" d="M -3.27 87.166 L -3.195 86.835 L -3.119 86.414 L -2.983 86.067 L -2.849 85.661 L -2.638 85.315 L -2.442 84.968 L -2.232 84.698 L -1.96 84.35 L -1.689 84.079 L -1.403 83.733 L -1.072 83.462 L -0.725 83.191 L -0.304 82.905 L 0.103 82.709 L 0.511 82.423 L 0.992 82.228 L 1.474 82.016 L 1.955 81.806 L 2.512 81.61 L 2.995 81.474 L 3.536 81.323 L 4.095 81.264 L 4.637 81.128 L 5.195 81.053 L 5.736 80.992 L 6.353 80.992 L 6.91 80.992 L 7.528 80.992 L 8.146 80.992 L 8.764 81.053 L 9.381 81.128 L 10.074 81.188 L 11.369 81.474 L 12.619 81.746 L 13.777 82.092 L 14.879 82.573 L 15.918 83.056 L 16.865 83.598 L 17.769 84.214 L 18.597 84.909 L 18.93 85.255 L 19.276 85.661 L 19.622 86.008 L 19.893 86.354 L 20.163 86.76 L 20.45 87.107 L 20.646 87.514 L 20.856 87.859 L 20.992 88.267 L 21.128 88.689 L 21.204 89.095 L 21.263 89.441 L 21.338 89.848 L 21.338 90.269 L 21.263 90.677 L 21.263 91.083 L 21.204 91.503 L 21.068 91.912 L 20.931 92.333 L 20.797 92.664 L 20.586 93.087 L 20.375 93.432 L 20.163 93.763 L 19.893 94.05 L 19.622 94.381 L 19.351 94.668 L 19.006 94.938 L 18.658 95.209 L 18.251 95.482 L 17.829 95.768 L 17.423 95.963 L 16.942 96.249 L 16.459 96.445 L 15.978 96.656 L 15.436 96.79 L 14.952 96.926 L 14.395 97.063 L 13.854 97.213 L 13.296 97.272 L 12.755 97.348 L 12.137 97.408 L 11.519 97.408 L 10.962 97.408 L 10.269 97.408 L 9.651 97.408 L 9.034 97.348 L 8.358 97.272 L 7.665 97.138 L 6.971 97.063 L 6.294 96.926 L 5.676 96.79 L 5.058 96.581 L 4.441 96.384 L 3.809 96.174 L 3.266 95.963 L 2.709 95.768 L 2.166 95.482 L 1.61 95.209 L 1.143 94.862 L 0.661 94.591 L 0.178 94.246 L -0.244 93.914 L -0.65 93.569 L -1.072 93.146 L -1.403 92.815 L -1.689 92.469 L -1.96 92.122 L -2.232 91.715 L -2.442 91.368 L -2.638 91.022 L -2.849 90.677 L -2.983 90.269 L -3.119 89.923 L -3.195 89.502 L -3.27 89.17 L -3.331 88.749 L -3.331 88.341 L -3.406 87.995 L -3.331 87.589 L -3.27 87.166 Z M -2.096 87.589 L -2.096 87.859 L -2.096 88.13 L -2.096 88.402 L -2.096 88.689 L -2.02 88.96 L -1.96 89.17 L -1.884 89.441 L -1.749 89.653 L -1.689 89.923 L -1.539 90.134 L -1.343 90.404 L -1.208 90.601 L -0.997 90.811 L -0.725 91.022 L -0.515 91.233 L -0.244 91.503 L 0.103 91.715 L 0.45 91.986 L 0.856 92.183 L 1.279 92.469 L 1.685 92.664 L 2.166 92.876 L 2.648 93.087 L 3.129 93.221 L 3.673 93.432 L 4.231 93.569 L 4.772 93.763 L 5.389 93.914 L 6.007 94.05 L 6.639 94.185 L 7.316 94.32 L 8.01 94.381 L 8.689 94.531 L 9.457 94.591 L 10.074 94.668 L 10.75 94.727 L 11.369 94.727 L 11.986 94.727 L 12.619 94.803 L 13.161 94.727 L 13.718 94.727 L 14.259 94.668 L 14.818 94.591 L 15.285 94.531 L 15.766 94.456 L 16.249 94.32 L 16.73 94.185 L 17.152 94.05 L 17.423 93.914 L 17.769 93.763 L 18.041 93.628 L 18.251 93.493 L 18.523 93.357 L 18.732 93.146 L 18.93 93.011 L 19.14 92.815 L 19.276 92.605 L 19.487 92.394 L 19.622 92.183 L 19.697 91.912 L 19.832 91.715 L 19.893 91.428 L 19.969 91.233 L 20.029 90.947 L 20.029 90.677 L 20.029 90.404 L 20.029 90.134 L 20.029 89.848 L 19.969 89.578 L 19.893 89.306 L 19.832 89.035 L 19.697 88.749 L 19.548 88.476 L 19.412 88.206 L 19.216 87.995 L 19.006 87.724 L 18.794 87.453 L 18.523 87.241 L 18.313 86.971 L 17.965 86.76 L 17.694 86.55 L 17.348 86.278 L 17.017 86.067 L 16.595 85.872 L 16.249 85.661 L 15.766 85.525 L 15.361 85.315 L 14.879 85.104 L 14.335 84.968 L 13.777 84.834 L 13.236 84.636 L 12.678 84.487 L 12.062 84.35 L 11.444 84.29 L 10.75 84.155 L 10.074 84.004 L 9.321 83.943 L 8.628 83.868 L 7.935 83.733 L 7.256 83.733 L 6.564 83.673 L 5.947 83.673 L 5.33 83.673 L 4.772 83.673 L 4.231 83.673 L 3.673 83.733 L 3.129 83.808 L 2.648 83.868 L 2.166 83.943 L 1.685 84.079 L 1.279 84.155 L 0.856 84.29 L 0.511 84.426 L 0.239 84.562 L -0.033 84.698 L -0.304 84.909 L -0.515 85.043 L -0.785 85.255 L -0.997 85.449 L -1.133 85.586 L -1.343 85.872 L -1.478 86.067 L -1.614 86.278 L -1.749 86.55 L -1.96 87.031 L -2.096 87.589 Z" style="fill: rgb(204, 0, 0);"/><polygon class="fil2" points="-0.997 74.531 0.586 70.329 21.262 67.181 8.01 62.363 7.528 62.152 7.046 62.015 6.639 61.879 6.294 61.819 5.947 61.743 5.676 61.668 5.465 61.668 5.254 61.668 5.058 61.743 4.847 61.819 4.712 61.954 4.502 62.015 4.366 62.227 4.231 62.363 4.155 62.573 4.019 62.769 3.884 63.327 3.266 63.054 5.195 57.692 5.811 57.888 5.601 58.446 5.54 58.718 5.54 58.928 5.54 59.2 5.54 59.411 5.601 59.621 5.676 59.817 5.811 60.027 6.007 60.162 6.157 60.299 6.294 60.435 6.564 60.569 6.835 60.72 7.105 60.855 7.528 60.991 7.935 61.203 8.358 61.337 27.725 68.416 27.59 68.823 5.33 72.257 19.487 77.408 19.969 77.619 20.45 77.754 20.856 77.889 21.262 77.965 21.549 78.025 21.821 78.101 22.091 78.101 22.228 78.101 22.438 78.025 22.649 77.965 22.845 77.889 22.997 77.754 23.132 77.619 23.267 77.408 23.327 77.273 23.463 77.001 23.674 76.518 24.29 76.729 22.304 82.092 21.685 81.881 21.896 81.323 21.955 81.053 21.955 80.855 22.031 80.646 21.955 80.435 21.896 80.163 21.821 80.029 21.685 79.817 21.474 79.606 21.414 79.47 21.204 79.336 20.992 79.2 20.722 79.064 20.375 78.93 20.029 78.793 19.622 78.657 19.14 78.447 3.129 72.602 2.859 72.678 2.512 72.738 2.242 72.738 1.955 72.814 1.76 72.875 1.549 72.95 1.414 73.009 1.279 73.009 0.992 73.145 0.721 73.356 0.45 73.568 0.178 73.839 0.043 73.975 -0.108 74.185 -0.244 74.456 -0.304 74.726" style="fill: rgb(204, 0, 0);"/><polygon class="fil2" points="11.172 49.862 19.548 54.937 21.414 51.85 21.61 51.58 21.745 51.293 21.821 51.022 21.896 50.75 21.955 50.538 21.955 50.343 21.896 50.132 21.896 49.921 21.745 49.651 21.549 49.439 21.338 49.169 21.128 48.897 20.797 48.612 20.511 48.34 20.105 48.07 19.697 47.799 19.893 47.377 27.317 51.85 27.108 52.256 26.702 52.061 26.354 51.909 26.009 51.774 25.736 51.639 25.466 51.503 25.254 51.442 25.043 51.368 24.908 51.368 24.577 51.293 24.29 51.293 23.944 51.368 23.674 51.442 23.538 51.503 23.403 51.58 23.267 51.715 23.132 51.85 22.997 51.986 22.845 52.196 22.71 52.331 22.574 52.542 20.722 55.63 27.725 59.892 28.071 60.087 28.342 60.299 28.628 60.435 28.824 60.569 29.034 60.645 29.245 60.78 29.381 60.78 29.442 60.855 29.654 60.916 29.789 60.916 29.999 60.916 30.135 60.855 30.27 60.78 30.482 60.645 30.617 60.435 30.828 60.162 32.272 57.753 32.408 57.482 32.545 57.211 32.679 56.941 32.815 56.729 32.89 56.518 32.951 56.248 33.026 56.112 33.026 55.9 33.026 55.555 33.026 55.149 32.89 54.741 32.679 54.259 32.545 53.972 32.333 53.641 32.122 53.22 31.852 52.873 31.58 52.467 31.234 52.061 30.963 51.639 30.557 51.156 30.828 50.75 35.421 55.224 28.824 66.067 28.282 65.735 28.553 65.178 28.689 64.967 28.764 64.636 28.764 64.349 28.764 64.019 28.689 63.808 28.628 63.597 28.493 63.327 28.282 63.115 28.146 62.979 28.01 62.92 27.8 62.769 27.59 62.573 27.317 62.436 27.047 62.227 26.702 62.015 26.295 61.743 12.468 53.431 11.986 53.16 11.579 52.873 11.172 52.679 10.826 52.467 10.48 52.331 10.208 52.256 9.998 52.196 9.863 52.196 9.651 52.196 9.457 52.256 9.245 52.256 9.034 52.392 8.899 52.542 8.764 52.679 8.552 52.814 8.416 53.024 8.146 53.566 7.589 53.22 14.125 42.36 18.87 44.982 18.658 45.388 18.176 45.177 17.829 45.042 17.423 44.907 17.077 44.771 16.805 44.696 16.535 44.561 16.249 44.501 16.053 44.501 15.631 44.426 15.285 44.501 14.952 44.561 14.606 44.696 14.47 44.771 14.335 44.907 14.259 45.042 14.125 45.177 13.914 45.313 13.777 45.524 13.643 45.795 13.507 46.006" style="fill: rgb(204, 0, 0);"/><path class="fil2" d="M 39.893 48.958 L 39.412 48.476 L 39.893 48.07 L 40.029 47.859 L 40.165 47.662 L 40.3 47.451 L 40.375 47.24 L 40.375 47.044 L 40.375 46.759 L 40.3 46.563 L 40.24 46.277 L 40.165 46.141 L 40.029 45.945 L 39.893 45.66 L 39.682 45.464 L 39.487 45.177 L 39.201 44.846 L 38.87 44.501 L 38.524 44.153 L 27.317 32.677 L 26.911 32.255 L 26.566 31.924 L 26.218 31.637 L 25.948 31.367 L 25.676 31.156 L 25.391 31.02 L 25.195 30.886 L 25.043 30.825 L 24.848 30.825 L 24.577 30.749 L 24.366 30.749 L 24.155 30.825 L 24.019 30.886 L 23.809 30.961 L 23.613 31.095 L 23.463 31.231 L 22.997 31.637 L 22.574 31.156 L 27.317 26.487 L 28.01 25.87 L 28.628 25.326 L 29.245 24.845 L 29.863 24.422 L 30.482 24.077 L 31.098 23.806 L 31.656 23.611 L 32.272 23.459 L 32.815 23.4 L 33.433 23.4 L 33.99 23.4 L 34.668 23.459 L 35.285 23.611 L 35.978 23.806 L 36.671 24.017 L 37.425 24.288 L 38.102 24.709 L 38.87 25.04 L 39.547 25.524 L 40.24 26.006 L 40.932 26.487 L 41.611 27.105 L 42.304 27.721 L 42.981 28.414 L 43.463 28.822 L 43.884 29.303 L 44.292 29.785 L 44.638 30.268 L 44.985 30.749 L 45.331 31.156 L 45.662 31.637 L 45.948 32.119 L 46.22 32.601 L 46.491 33.085 L 46.702 33.566 L 46.911 34.048 L 47.107 34.529 L 47.319 35.087 L 47.454 35.554 L 47.59 36.035 L 47.665 36.592 L 47.725 37.135 L 47.8 37.692 L 47.8 38.174 L 47.8 38.716 L 47.725 39.197 L 47.59 39.68 L 47.454 40.161 L 47.319 40.645 L 47.107 41.126 L 46.911 41.609 L 46.626 42.09 L 46.279 42.497 L 45.948 42.978 L 45.603 43.4 L 45.18 43.807 L 39.893 48.958 Z M 42.033 44.364 L 42.364 44.214 L 42.71 44.016 L 43.056 43.882 L 43.327 43.671 L 43.599 43.459 L 43.809 43.325 L 44.019 43.114 L 44.231 42.918 L 44.504 42.708 L 44.699 42.436 L 44.91 42.166 L 45.045 41.879 L 45.18 41.534 L 45.331 41.261 L 45.467 40.916 L 45.527 40.583 L 45.603 40.238 L 45.662 39.89 L 45.662 39.545 L 45.662 39.139 L 45.662 38.791 L 45.662 38.385 L 45.603 37.963 L 45.467 37.556 L 45.392 37.135 L 45.256 36.667 L 45.119 36.246 L 44.91 35.839 L 44.699 35.358 L 44.504 34.936 L 44.292 34.454 L 44.019 34.048 L 43.749 33.641 L 43.403 33.16 L 43.132 32.737 L 42.785 32.255 L 42.364 31.788 L 42.033 31.367 L 41.611 30.886 L 41.13 30.478 L 40.722 29.996 L 40.24 29.59 L 39.833 29.169 L 39.351 28.761 L 38.93 28.414 L 38.449 28.068 L 38.042 27.798 L 37.62 27.45 L 37.152 27.24 L 36.73 26.969 L 36.324 26.757 L 35.843 26.563 L 35.421 26.351 L 35.014 26.216 L 34.532 26.081 L 34.126 25.945 L 33.704 25.87 L 33.297 25.808 L 32.89 25.734 L 32.545 25.734 L 32.122 25.734 L 31.791 25.734 L 31.445 25.808 L 31.098 25.808 L 30.753 25.945 L 30.405 26.006 L 30.074 26.141 L 29.789 26.351 L 29.442 26.487 L 29.17 26.699 L 28.899 26.908 L 28.628 27.18 L 28.493 27.375 L 28.282 27.586 L 28.071 27.798 L 27.935 28.068 L 27.725 28.339 L 27.59 28.625 L 27.393 28.958 L 27.242 29.303 L 42.033 44.364 Z" style="fill: rgb(204, 0, 0);"/><polygon class="fil2" points="58.449 32.06 58.856 32.601 53.163 36.729 52.741 36.186 53.223 35.839 53.433 35.629 53.569 35.493 53.704 35.282 53.78 35.147 53.841 34.936 53.916 34.665 53.916 34.454 53.916 34.259 53.841 34.048 53.78 33.837 53.645 33.566 53.509 33.295 53.298 32.948 53.087 32.601 52.816 32.194 52.47 31.788 43.193 18.655 42.92 18.31 42.65 17.962 42.439 17.691 42.229 17.42 42.033 17.21 41.882 16.998 41.746 16.862 41.611 16.727 41.401 16.592 41.205 16.532 40.993 16.457 40.722 16.381 40.375 16.381 40.105 16.457 39.833 16.532 39.547 16.667 39.066 16.998 38.719 16.457 44.428 12.405 44.849 12.947 44.367 13.293 44.157 13.429 44.019 13.565 43.884 13.774 43.809 13.986 43.749 14.183 43.674 14.394 43.674 14.604 43.674 14.875 43.749 15.01 43.809 15.222 43.944 15.493 44.081 15.764 44.292 16.11 44.504 16.532 44.774 16.862 45.045 17.345 54.397 30.402 54.668 30.749 54.879 31.095 55.15 31.367 55.36 31.637 55.496 31.848 55.708 32.06 55.844 32.194 55.979 32.33 56.19 32.466 56.385 32.601 56.596 32.677 56.868 32.677 57.139 32.677 57.484 32.677 57.756 32.541 57.967 32.405" style="fill: rgb(204, 0, 0);"/><polygon class="fil2" points="67.801 0.447 71.1 7.18 70.754 7.39 70.271 6.833 69.865 6.29 69.442 5.808 69.097 5.387 68.691 4.98 68.284 4.709 67.937 4.362 67.517 4.152 67.244 3.941 66.974 3.806 66.703 3.746 66.491 3.61 66.22 3.535 65.933 3.474 65.663 3.399 65.392 3.399 65.121 3.324 64.834 3.324 64.564 3.399 64.293 3.399 64.081 3.474 63.811 3.535 63.539 3.61 63.268 3.746 62.92 3.881 62.575 4.092 62.304 4.287 61.958 4.498 61.746 4.77 61.476 5.055 61.265 5.326 61.053 5.673 60.859 5.944 60.723 6.35 60.587 6.697 60.512 7.105 60.377 7.525 60.302 7.932 60.302 8.414 60.241 8.897 60.302 9.724 60.302 10.613 60.437 11.501 60.647 12.405 60.859 13.293 61.13 14.183 61.476 15.147 61.822 16.11 62.152 16.862 62.5 17.631 62.92 18.31 63.33 19.002 63.736 19.62 64.157 20.238 64.638 20.853 65.121 21.471 65.603 21.954 66.085 22.436 66.566 22.918 67.033 23.265 67.517 23.611 67.998 23.881 68.419 24.077 68.9 24.288 69.383 24.422 69.79 24.499 70.271 24.558 70.679 24.558 71.1 24.558 71.447 24.499 71.853 24.422 72.199 24.288 72.606 24.077 73.012 23.881 73.359 23.611 73.705 23.324 73.978 22.978 74.323 22.572 74.594 22.225 74.805 21.743 72.124 15.433 71.988 15.01 71.778 14.665 71.643 14.394 71.507 14.122 71.371 13.851 71.235 13.64 71.16 13.504 71.025 13.368 70.814 13.159 70.617 13.023 70.408 12.887 70.197 12.811 69.924 12.811 69.579 12.811 69.232 12.947 68.766 13.084 68.48 12.466 74.398 9.995 74.671 10.613 74.398 10.687 74.187 10.823 73.978 10.96 73.842 11.095 73.705 11.231 73.645 11.442 73.57 11.577 73.494 11.848 73.494 12.059 73.57 12.27 73.57 12.466 73.645 12.752 73.705 13.023 73.842 13.368 73.978 13.699 74.112 14.046 74.323 14.529 77.139 21.2 76.733 21.954 76.251 22.647 76.04 22.918 75.77 23.189 75.497 23.459 75.211 23.746 74.671 24.227 74.053 24.634 73.359 25.04 72.681 25.388 72.124 25.598 71.582 25.808 71.025 25.945 70.483 26.006 69.924 26.081 69.442 26.081 68.9 26.081 68.343 26.006 67.862 25.945 67.32 25.808 66.838 25.598 66.28 25.388 65.798 25.177 65.256 24.906 64.774 24.558 64.293 24.152 63.539 23.611 62.845 22.918 62.152 22.225 61.612 21.471 60.995 20.644 60.512 19.754 60.031 18.866 59.549 17.901 59.278 17.149 59.006 16.457 58.794 15.703 58.584 14.952 58.449 14.183 58.313 13.429 58.238 12.675 58.177 11.924 58.102 11.019 58.177 10.206 58.238 9.378 58.313 8.549 58.449 7.798 58.659 7.105 58.931 6.425 59.203 5.808 59.488 5.251 59.82 4.77 60.166 4.362 60.587 3.941 61.053 3.61 61.476 3.262 62.018 2.917 62.575 2.706 62.982 2.511 63.403 2.434 63.736 2.299 64.157 2.224 64.368 2.224 64.564 2.224 64.834 2.224 65.121 2.224 65.392 2.224 65.738 2.224 66.085 2.224 66.417 2.299 66.763 2.299 67.033 2.299 67.185 2.299 67.244 2.299 67.32 2.299 67.381 2.224 67.517 2.224 67.591 2.088 67.666 1.952 67.666 1.818 67.666 1.607 67.591 1.334 67.517 1.064 67.381 0.644" style="fill: rgb(204, 0, 0);"/><polygon class="fil2" points="86.129 19.579 86.263 20.272 79.456 21.989 79.245 21.372 79.864 21.236 80.074 21.16 80.284 21.024 80.48 20.949 80.632 20.753 80.767 20.617 80.902 20.407 80.963 20.196 81.038 20 81.098 19.789 81.098 19.579 81.038 19.308 81.038 18.961 80.963 18.555 80.902 18.133 80.767 17.651 80.632 17.184 76.641 1.641 76.505 1.159 76.429 0.828 76.293 0.406 76.218 0.135 76.157 -0.136 76.022 -0.421 75.948 -0.617 75.886 -0.753 75.751 -0.964 75.6 -1.099 75.405 -1.236 75.193 -1.372 74.922 -1.521 74.577 -1.581 74.306 -1.581 74.019 -1.521 73.478 -1.372 73.266 -2.065 80.074 -3.78 80.284 -3.164 79.728 -3.028 79.456 -2.952 79.245 -2.816 79.049 -2.681 78.899 -2.546 78.764 -2.41 78.628 -2.199 78.567 -2.004 78.491 -1.793 78.491 -1.581 78.491 -1.372 78.491 -1.099 78.491 -0.753 78.567 -0.346 78.703 0.06 78.764 0.542 78.899 1.023 82.89 16.627 83.026 17.034 83.101 17.456 83.236 17.802 83.297 18.133 83.446 18.42 83.507 18.615 83.582 18.826 83.644 18.961 83.778 19.173 83.99 19.308 84.126 19.518 84.337 19.579 84.683 19.714 84.953 19.789 85.225 19.789 85.57 19.789" style="fill: rgb(204, 0, 0);"/><polygon class="fil2" points="84.022 -4.236 88.48 -4.704 100.514 12.405 98.933 -1.617 98.933 -2.174 98.858 -2.656 98.721 -3.062 98.646 -3.468 98.586 -3.755 98.51 -4.026 98.374 -4.236 98.316 -4.434 98.179 -4.569 98.03 -4.704 97.833 -4.855 97.698 -4.915 97.486 -4.991 97.275 -4.991 97.08 -4.991 96.794 -4.991 96.251 -4.915 96.177 -5.608 101.885 -6.226 101.944 -5.608 101.327 -5.533 101.132 -5.472 100.921 -5.397 100.708 -5.336 100.514 -5.186 100.377 -5.051 100.228 -4.855 100.093 -4.644 100.033 -4.434 99.956 -4.236 99.897 -4.026 99.897 -3.755 99.897 -3.468 99.897 -3.123 99.956 -2.716 99.956 -2.234 100.033 -1.752 102.292 18.731 101.885 18.791 88.9 0.371 90.544 15.358 90.619 15.899 90.679 16.381 90.754 16.802 90.89 17.149 90.95 17.48 91.025 17.766 91.1 17.962 91.237 18.098 91.372 18.31 91.507 18.446 91.643 18.521 91.853 18.655 92.049 18.655 92.261 18.731 92.473 18.731 92.668 18.731 93.3 18.655 93.36 19.348 87.651 19.965 87.592 19.273 88.133 19.197 88.419 19.197 88.616 19.137 88.827 19.002 89.036 18.927 89.174 18.731 89.309 18.58 89.445 18.384 89.52 18.098 89.58 17.962 89.58 17.766 89.655 17.48 89.655 17.149 89.655 16.802 89.58 16.381 89.58 15.974 89.52 15.493 87.651 -1.406 87.456 -1.693 87.245 -1.963 87.034 -2.174 86.899 -2.369 86.763 -2.58 86.627 -2.716 86.493 -2.851 86.357 -2.927 86.146 -3.123 85.875 -3.273 85.528 -3.408 85.183 -3.543 84.971 -3.604 84.774 -3.604 84.428 -3.604 84.158 -3.604" style="fill: rgb(204, 0, 0);"/><polygon class="fil2" points="111.569 -4.434 110.816 5.387 114.385 5.673 114.731 5.673 115.078 5.673 115.349 5.673 115.635 5.598 115.831 5.521 116.042 5.387 116.175 5.326 116.313 5.191 116.524 4.98 116.66 4.709 116.794 4.362 116.93 4.017 117.005 3.671 117.141 3.262 117.216 2.781 117.275 2.299 117.682 2.299 117.066 10.96 116.583 10.884 116.583 10.477 116.583 10.071 116.583 9.724 116.524 9.378 116.524 9.106 116.524 8.897 116.449 8.685 116.449 8.549 116.313 8.204 116.175 7.932 116.042 7.721 115.831 7.45 115.695 7.39 115.561 7.314 115.349 7.254 115.213 7.18 115.001 7.105 114.807 7.044 114.535 7.044 114.325 6.969 110.681 6.697 110.062 14.875 109.987 15.282 109.987 15.628 109.987 15.899 109.987 16.186 109.987 16.457 109.987 16.592 109.987 16.802 109.987 16.862 110.062 17.073 110.138 17.21 110.197 17.345 110.273 17.48 110.408 17.555 110.605 17.691 110.889 17.691 111.161 17.766 113.978 17.962 114.325 18.037 114.595 18.037 114.943 18.037 115.152 18.037 115.423 17.962 115.635 17.962 115.831 17.901 116.042 17.827 116.175 17.766 116.313 17.691 116.524 17.555 116.66 17.48 116.869 17.345 117.005 17.149 117.141 16.998 117.351 16.802 117.547 16.532 117.76 16.186 117.968 15.839 118.166 15.433 118.453 15.01 118.647 14.529 118.858 14.046 119.128 13.504 119.611 13.565 117.682 19.62 105.047 18.655 105.106 17.962 105.664 18.037 106.012 18.037 106.283 17.962 106.554 17.827 106.825 17.691 107.034 17.48 107.171 17.345 107.307 17.073 107.456 16.862 107.456 16.667 107.518 16.457 107.518 16.246 107.593 15.974 107.652 15.628 107.652 15.282 107.728 14.875 107.728 14.467 109.022 -1.617 109.022 -2.234 109.098 -2.716 109.098 -3.123 109.098 -3.543 109.098 -3.891 109.022 -4.162 109.022 -4.373 108.963 -4.569 108.827 -4.779 108.692 -4.915 108.556 -5.051 108.406 -5.186 108.209 -5.261 107.999 -5.336 107.787 -5.397 107.518 -5.397 106.976 -5.472 107.034 -6.15 119.685 -5.127 119.414 0.312 118.934 0.236 118.934 -0.17 118.858 -0.653 118.858 -1.075 118.782 -1.406 118.782 -1.693 118.723 -2.024 118.647 -2.234 118.587 -2.445 118.453 -2.851 118.24 -3.123 118.03 -3.408 117.76 -3.679 117.624 -3.755 117.486 -3.816 117.275 -3.891 117.141 -3.891 116.869 -3.949 116.66 -4.026 116.387 -4.026 116.101 -4.087" style="fill: rgb(204, 0, 0);"/><polygon class="fil2" points="142.564 0.177 142.367 0.853 141.947 0.853 141.538 0.928 141.193 1.064 140.848 1.276 140.65 1.47 140.441 1.682 140.229 1.952 140.019 2.224 139.749 2.511 139.536 2.841 139.265 3.188 139.069 3.61 128.135 22.028 127.652 21.879 127.247 0.101 127.172 -0.306 127.172 -0.653 127.172 -1 127.172 -1.27 127.172 -1.557 127.112 -1.752 127.112 -1.887 127.112 -2.024 126.96 -2.309 126.9 -2.58 126.763 -2.792 126.628 -3.062 126.419 -3.273 126.148 -3.408 125.861 -3.604 125.53 -3.755 125.726 -4.373 132.186 -2.58 132.052 -1.963 131.781 -2.024 131.509 -2.024 131.299 -2.024 131.087 -2.024 130.891 -1.963 130.681 -1.963 130.545 -1.887 130.469 -1.828 130.259 -1.617 130.062 -1.406 129.927 -1.135 129.852 -0.864 129.793 -0.653 129.717 -0.382 129.717 -0.11 129.642 0.236 129.642 0.644 129.642 1.064 129.642 1.47 129.642 1.952 129.988 16.802 137.411 4.287 137.684 3.806 137.895 3.399 138.106 2.992 138.241 2.645 138.436 2.375 138.512 2.088 138.647 1.818 138.725 1.607 138.725 1.334 138.725 1.125 138.725 0.853 138.647 0.583 138.588 0.447 138.512 0.312 138.376 0.177 138.301 0.026 138.166 -0.035 138.031 -0.17 137.684 -0.382 137.547 -0.455 137.489 -0.516 137.624 -1.135" style="fill: rgb(204, 0, 0);"/><path class="fil2" d="M 150.741 31.637 L 146.765 29.65 L 147.036 16.727 L 146.765 16.667 L 146.479 16.532 L 146.284 16.457 L 146.148 16.321 L 145.997 16.246 L 145.801 16.186 L 145.665 16.11 L 145.516 15.974 L 142.217 22.436 L 142.022 22.918 L 141.811 23.4 L 141.599 23.806 L 141.464 24.152 L 141.328 24.499 L 141.267 24.77 L 141.267 24.981 L 141.267 25.177 L 141.267 25.388 L 141.328 25.598 L 141.403 25.808 L 141.464 26.006 L 141.599 26.141 L 141.749 26.276 L 141.947 26.427 L 142.082 26.563 L 142.699 26.833 L 142.367 27.45 L 136.102 24.288 L 136.388 23.671 L 136.93 23.941 L 137.201 24.017 L 137.411 24.077 L 137.623 24.077 L 137.82 24.077 L 138.104 24.077 L 138.301 23.941 L 138.512 23.806 L 138.723 23.671 L 138.859 23.535 L 138.994 23.4 L 139.205 23.189 L 139.34 22.918 L 139.536 22.572 L 139.748 22.225 L 139.957 21.818 L 140.168 21.397 L 147.383 7.044 L 147.653 6.561 L 147.865 6.079 L 148.001 5.673 L 148.135 5.326 L 148.271 4.98 L 148.346 4.709 L 148.407 4.498 L 148.407 4.287 L 148.346 4.092 L 148.346 3.881 L 148.195 3.671 L 148.135 3.474 L 148.001 3.324 L 147.865 3.188 L 147.714 3.051 L 147.517 2.917 L 146.96 2.645 L 147.247 2.027 L 152.594 4.77 L 153.151 5.055 L 153.694 5.326 L 154.175 5.598 L 154.597 5.869 L 154.943 6.154 L 155.274 6.425 L 155.561 6.697 L 155.831 6.969 L 156.042 7.254 L 156.177 7.586 L 156.313 7.932 L 156.45 8.279 L 156.585 8.624 L 156.661 9.031 L 156.721 9.453 L 156.721 9.86 L 156.721 10.266 L 156.721 10.749 L 156.661 11.231 L 156.585 11.653 L 156.45 12.119 L 156.238 12.6 L 156.103 13.084 L 155.831 13.565 L 155.621 14.046 L 155.274 14.529 L 155.003 14.952 L 154.657 15.358 L 154.326 15.703 L 153.98 16.051 L 153.558 16.381 L 153.226 16.667 L 152.744 16.862 L 152.321 17.073 L 151.84 17.285 L 151.434 17.345 L 150.952 17.42 L 150.395 17.48 L 149.929 17.48 L 149.371 17.42 L 149.236 25.326 L 149.236 25.945 L 149.236 26.563 L 149.236 27.105 L 149.236 27.586 L 149.296 28.068 L 149.371 28.49 L 149.446 28.822 L 149.507 29.107 L 149.642 29.379 L 149.778 29.65 L 149.929 29.921 L 150.123 30.132 L 150.259 30.343 L 150.545 30.613 L 150.741 30.825 L 151.028 31.02 L 150.741 31.637 Z M 145.997 14.952 L 146.209 15.086 L 146.343 15.147 L 146.479 15.222 L 146.615 15.282 L 147.096 15.493 L 147.653 15.703 L 148.135 15.764 L 148.617 15.839 L 149.1 15.839 L 149.582 15.764 L 150.064 15.703 L 150.47 15.493 L 150.877 15.282 L 151.299 15.01 L 151.704 14.665 L 152.051 14.333 L 152.397 13.91 L 152.744 13.504 L 153.015 13.023 L 153.287 12.541 L 153.558 11.983 L 153.769 11.501 L 153.904 11.019 L 154.039 10.552 L 154.114 10.071 L 154.175 9.588 L 154.175 9.167 L 154.175 8.685 L 154.114 8.279 L 153.98 7.932 L 153.844 7.525 L 153.633 7.254 L 153.422 6.907 L 153.151 6.697 L 152.879 6.425 L 152.533 6.29 L 152.321 6.214 L 152.186 6.079 L 151.976 6.004 L 151.704 5.944 L 151.495 5.869 L 151.222 5.808 L 150.952 5.808 L 150.681 5.733 L 145.997 14.952 Z" style="fill: rgb(204, 0, 0);"/><path class="fil2" d="M 164.011 31.577 L 158.92 27.721 L 155.697 30.057 L 155.426 30.268 L 155.14 30.478 L 154.943 30.689 L 154.732 30.825 L 154.523 31.02 L 154.387 31.156 L 154.175 31.367 L 154.114 31.501 L 153.98 31.712 L 153.844 31.985 L 153.769 32.194 L 153.769 32.466 L 153.844 32.601 L 153.844 32.737 L 153.904 32.948 L 154.039 33.085 L 154.175 33.295 L 154.326 33.43 L 154.462 33.641 L 154.658 33.837 L 154.25 34.394 L 150.2 31.231 L 150.545 30.689 L 150.816 30.749 L 151.028 30.886 L 151.223 30.886 L 151.435 30.961 L 151.646 30.961 L 151.781 31.02 L 151.916 30.961 L 152.052 30.961 L 152.322 30.825 L 152.67 30.689 L 153.015 30.538 L 153.363 30.343 L 153.769 30.057 L 154.25 29.726 L 154.732 29.379 L 155.275 29.033 L 172.052 16.727 L 172.4 16.998 L 164.628 36.456 L 164.356 37.075 L 164.221 37.556 L 164.011 38.04 L 163.875 38.446 L 163.799 38.866 L 163.74 39.197 L 163.663 39.484 L 163.663 39.755 L 163.663 39.965 L 163.74 40.161 L 163.799 40.434 L 163.875 40.645 L 163.936 40.78 L 164.086 40.991 L 164.221 41.202 L 164.417 41.337 L 164.011 41.879 L 158.861 37.903 L 159.267 37.422 L 159.477 37.481 L 159.673 37.617 L 159.884 37.692 L 160.019 37.767 L 160.155 37.828 L 160.366 37.828 L 160.501 37.828 L 160.636 37.828 L 160.848 37.767 L 161.118 37.617 L 161.329 37.481 L 161.541 37.211 L 161.6 37.075 L 161.735 36.865 L 161.871 36.667 L 162.022 36.382 L 162.157 36.035 L 162.354 35.704 L 162.505 35.358 L 162.641 34.936 L 164.011 31.577 Z M 164.553 30.343 L 168.333 20.853 L 160.019 26.908 L 164.553 30.343 Z" style="fill: rgb(204, 0, 0);"/><polygon class="fil2" points="178.861 52.331 174.463 54.319 168.408 46.759 168.889 46.351 169.779 46.277 170.683 46.216 171.496 46.216 172.325 46.141 173.077 46.081 173.829 46.006 174.598 45.945 175.276 45.87 175.968 45.795 176.661 45.735 177.278 45.66 177.896 45.6 178.438 45.464 178.995 45.388 179.537 45.252 180.02 45.177 180.984 44.907 181.947 44.635 182.776 44.364 183.588 44.016 184.356 43.597 185.111 43.265 185.729 42.783 186.344 42.36 186.828 41.954 187.174 41.609 187.58 41.202 187.85 40.855 188.137 40.434 188.41 40.026 188.618 39.62 188.754 39.197 188.891 38.791 188.951 38.446 188.951 38.04 188.951 37.692 188.891 37.347 188.816 37.075 188.68 36.729 188.468 36.518 188.273 36.246 188.063 36.035 187.85 35.899 187.58 35.764 187.309 35.629 186.963 35.554 186.691 35.493 186.344 35.418 185.939 35.418 185.592 35.418 185.171 35.493 184.764 35.554 184.356 35.704 183.936 35.839 183.454 36.035 183.048 36.246 182.701 35.899 183.394 35.493 184.071 35.087 184.764 34.74 185.382 34.529 186 34.259 186.556 34.123 187.174 33.988 187.716 33.988 188.199 33.913 188.754 33.988 189.161 34.048 189.643 34.183 189.991 34.394 190.397 34.665 190.743 34.936 191.014 35.282 191.285 35.704 191.571 36.111 191.707 36.518 191.842 36.999 191.842 37.481 191.842 38.04 191.768 38.521 191.632 39.062 191.435 39.62 191.225 40.161 190.954 40.645 190.608 41.202 190.261 41.609 189.855 42.09 189.434 42.497 188.951 42.918 188.199 43.459 187.444 43.943 186.556 44.426 185.729 44.771 184.975 45.042 184.206 45.313 183.454 45.524 182.641 45.735 181.812 45.945 180.908 46.081 180.02 46.216 179.056 46.351 178.377 46.412 177.684 46.487 177.068 46.563 176.509 46.623 175.968 46.699 175.41 46.759 174.929 46.834 174.463 46.834 174.041 46.894 173.694 46.969 173.363 46.969 173.015 47.044 172.73 47.044 172.459 47.044 172.264 47.044 172.113 47.044 174.794 50.403 175.003 50.674 175.139 50.886 175.352 51.095 175.487 51.293 175.697 51.442 175.833 51.58 175.968 51.715 176.029 51.774 176.316 51.909 176.509 52.061 176.796 52.121 177.127 52.121 177.414 52.196 177.762 52.121 178.168 52.061 178.514 51.986" style="fill: rgb(204, 0, 0);"/><polygon class="fil2" points="185.307 63.115 180.714 64.501 175.758 56.112 176.316 55.766 177.203 55.9 178.092 55.976 178.92 56.036 179.749 56.112 180.501 56.173 181.254 56.173 182.008 56.248 182.701 56.248 183.394 56.248 184.071 56.323 184.689 56.323 185.307 56.323 185.939 56.248 186.481 56.248 187.038 56.248 187.521 56.173 188.544 56.112 189.509 55.9 190.397 55.766 191.225 55.555 192.054 55.283 192.807 55.013 193.485 54.665 194.178 54.319 194.659 53.972 195.14 53.701 195.547 53.356 195.895 53.024 196.239 52.679 196.512 52.256 196.797 51.909 196.994 51.503 197.127 51.156 197.264 50.75 197.414 50.403 197.414 50.057 197.414 49.71 197.339 49.379 197.264 49.094 197.127 48.822 196.933 48.552 196.722 48.34 196.512 48.145 196.316 47.934 196.03 47.799 195.759 47.662 195.412 47.511 195.14 47.451 194.735 47.377 194.388 47.377 193.966 47.377 193.56 47.377 193.152 47.451 192.671 47.511 192.19 47.662 191.707 47.799 191.497 47.377 192.25 47.044 192.942 46.759 193.635 46.563 194.315 46.351 194.929 46.277 195.547 46.141 196.103 46.141 196.648 46.141 197.204 46.216 197.686 46.351 198.168 46.487 198.576 46.699 198.921 46.969 199.268 47.24 199.539 47.588 199.809 47.934 200.021 48.415 200.157 48.822 200.291 49.303 200.365 49.787 200.291 50.268 200.23 50.75 200.095 51.293 199.885 51.774 199.614 52.331 199.328 52.814 198.997 53.295 198.576 53.701 198.168 54.123 197.686 54.53 197.204 54.876 196.648 55.224 196.316 55.494 195.895 55.69 195.004 56.036 194.117 56.383 193.212 56.593 192.461 56.789 191.632 56.941 190.878 56.999 190.051 57.136 189.161 57.211 188.273 57.211 187.37 57.272 186.406 57.211 185.729 57.211 185.035 57.211 184.418 57.211 183.801 57.136 183.257 57.136 182.701 57.136 182.218 57.136 181.812 57.136 181.389 57.075 180.984 57.075 180.636 57.075 180.291 57.075 180.02 56.999 179.809 56.999 179.613 56.999 179.403 56.999 181.601 60.72 181.738 60.916 181.947 61.203 182.082 61.398 182.218 61.609 182.355 61.819 182.43 61.954 182.564 62.09 182.641 62.227 182.837 62.363 183.108 62.498 183.394 62.634 183.666 62.709 183.936 62.769 184.283 62.769 184.689 62.769 185.111 62.709" style="fill: rgb(204, 0, 0);"/><path class="fil2" d="M 195.216 79.546 L 193.349 73.431 L 189.373 73.431 L 189.028 73.431 L 188.68 73.493 L 188.408 73.493 L 188.137 73.493 L 187.85 73.568 L 187.655 73.568 L 187.444 73.627 L 187.234 73.627 L 186.963 73.777 L 186.751 73.914 L 186.556 74.05 L 186.406 74.32 L 186.345 74.395 L 186.27 74.531 L 186.27 74.727 L 186.21 74.938 L 186.21 75.149 L 186.27 75.344 L 186.27 75.63 L 186.345 75.902 L 185.729 76.112 L 184.206 71.158 L 184.839 70.947 L 184.974 71.158 L 185.111 71.368 L 185.246 71.503 L 185.382 71.715 L 185.517 71.776 L 185.652 71.91 L 185.788 71.986 L 185.864 72.046 L 186.135 72.121 L 186.481 72.196 L 186.887 72.257 L 187.309 72.257 L 187.792 72.332 L 188.335 72.332 L 188.951 72.332 L 189.643 72.332 L 210.472 72.196 L 210.608 72.602 L 192.867 83.868 L 192.325 84.214 L 191.918 84.487 L 191.496 84.772 L 191.09 85.043 L 190.817 85.315 L 190.532 85.586 L 190.336 85.797 L 190.185 86.008 L 190.05 86.142 L 189.991 86.354 L 189.915 86.55 L 189.855 86.76 L 189.779 87.031 L 189.779 87.241 L 189.779 87.453 L 189.855 87.724 L 189.237 87.934 L 187.369 81.67 L 187.986 81.474 L 188.062 81.67 L 188.199 81.881 L 188.273 82.092 L 188.408 82.228 L 188.468 82.363 L 188.618 82.498 L 188.755 82.573 L 188.816 82.634 L 189.086 82.709 L 189.373 82.769 L 189.643 82.709 L 189.915 82.634 L 190.126 82.573 L 190.336 82.498 L 190.532 82.363 L 190.817 82.228 L 191.149 82.092 L 191.435 81.957 L 191.767 81.746 L 192.112 81.474 L 195.216 79.546 Z M 196.377 78.854 L 204.976 73.356 L 194.734 73.431 L 196.377 78.854 Z" style="fill: rgb(204, 0, 0);"/><polygon class="fil2" points="215.202 100.571 207.793 101.67 207.793 101.264 208.41 100.993 209.027 100.782 209.645 100.511 210.126 100.3 210.608 100.03 211.091 99.743 211.498 99.472 211.843 99.2 212.25 98.778 212.672 98.372 212.942 97.889 213.214 97.408 213.424 96.926 213.486 96.384 213.56 95.827 213.56 95.284 213.486 94.862 213.424 94.531 213.349 94.185 213.214 93.839 213.079 93.493 212.867 93.146 212.672 92.876 212.386 92.605 212.19 92.333 211.843 92.047 211.571 91.851 211.226 91.564 210.805 91.368 210.472 91.158 209.991 91.022 209.569 90.811 208.741 90.541 207.929 90.329 207.1 90.194 206.135 90.059 205.246 89.984 204.283 89.984 203.244 89.984 202.294 90.059 201.389 90.134 200.639 90.269 199.809 90.404 199.056 90.541 198.303 90.752 197.55 90.947 196.858 91.233 196.165 91.503 195.489 91.777 194.871 92.047 194.315 92.394 193.83 92.74 193.349 93.087 192.942 93.432 192.596 93.839 192.25 94.185 191.977 94.591 191.768 95.013 191.571 95.345 191.435 95.768 191.285 96.174 191.225 96.52 191.225 96.926 191.225 97.348 191.285 97.755 191.362 98.237 191.497 98.643 191.707 99.064 191.919 99.472 192.19 99.894 192.461 100.225 192.807 100.647 199.674 100.03 200.095 100.03 200.427 99.954 200.85 99.894 201.12 99.894 201.389 99.818 201.602 99.743 201.814 99.683 201.95 99.683 202.219 99.547 202.43 99.336 202.625 99.2 202.761 98.988 202.838 98.854 202.838 98.778 202.912 98.582 202.912 98.448 202.973 98.237 202.973 98.025 202.912 97.831 202.912 97.619 203.59 97.544 204.148 103.869 203.455 103.944 203.455 103.659 203.394 103.388 203.318 103.192 203.244 103.042 203.109 102.844 202.973 102.709 202.838 102.561 202.625 102.499 202.43 102.424 202.219 102.363 202.008 102.363 201.738 102.363 201.466 102.288 201.12 102.288 200.714 102.363 200.291 102.363 199.809 102.363 192.596 102.98 192.325 102.709 192.054 102.363 191.768 102.016 191.571 101.67 191.285 101.4 191.149 101.053 190.954 100.707 190.817 100.361 190.471 99.683 190.261 98.988 190.126 98.237 189.991 97.408 189.991 96.79 189.991 96.249 190.051 95.691 190.126 95.149 190.185 94.591 190.336 94.11 190.532 93.628 190.743 93.146 191.014 92.664 191.285 92.183 191.632 91.777 191.977 91.368 192.386 90.947 192.807 90.541 193.288 90.194 193.83 89.848 194.585 89.306 195.489 88.885 196.316 88.476 197.264 88.13 198.168 87.859 199.191 87.649 200.23 87.453 201.257 87.302 202.008 87.302 202.838 87.241 203.59 87.302 204.343 87.302 205.111 87.453 205.864 87.514 206.617 87.649 207.37 87.859 208.199 88.13 209.027 88.402 209.781 88.749 210.472 89.095 211.15 89.441 211.768 89.848 212.325 90.329 212.867 90.811 213.29 91.233 213.622 91.715 213.907 92.183 214.179 92.664 214.389 93.221 214.585 93.763 214.659 94.32 214.72 94.938 214.796 95.345 214.796 95.827 214.72 96.174 214.659 96.581 214.659 96.79 214.585 97.002 214.523 97.272 214.389 97.483 214.314 97.755 214.179 98.101 214.042 98.372 213.907 98.718 213.771 99.064 213.696 99.336 213.622 99.547 213.622 99.683 213.696 99.818 213.771 99.894 213.83 99.954 213.966 100.09 214.042 100.09 214.179 100.09 214.314 100.165 214.45 100.165 214.585 100.165 214.796 100.165 215.006 100.165 215.202 100.165" style="fill: rgb(204, 0, 0);"/><path class="fil2" d="M 214.389 116.717 L 214.313 117.064 L 214.253 117.485 L 214.102 117.892 L 213.966 118.238 L 213.83 118.584 L 213.62 118.915 L 213.424 119.262 L 213.154 119.608 L 212.867 119.878 L 212.597 120.226 L 212.25 120.497 L 211.904 120.782 L 211.571 121.055 L 211.15 121.326 L 210.668 121.596 L 210.262 121.807 L 209.779 122.078 L 209.298 122.289 L 208.741 122.5 L 208.273 122.636 L 207.716 122.77 L 207.235 122.906 L 206.693 123.042 L 206.135 123.118 L 205.518 123.177 L 204.976 123.253 L 204.343 123.253 L 203.8 123.329 L 203.182 123.329 L 202.566 123.253 L 201.873 123.177 L 201.256 123.177 L 199.945 122.982 L 198.71 122.696 L 197.551 122.364 L 196.376 122.019 L 195.352 121.537 L 194.388 120.979 L 193.424 120.436 L 192.595 119.744 L 192.189 119.397 L 191.842 119.066 L 191.496 118.719 L 191.149 118.373 L 190.878 117.968 L 190.668 117.62 L 190.397 117.275 L 190.261 116.866 L 190.05 116.445 L 189.915 116.099 L 189.779 115.691 L 189.717 115.285 L 189.717 114.865 L 189.643 114.517 L 189.643 114.111 L 189.717 113.705 L 189.779 113.222 L 189.855 112.876 L 189.991 112.47 L 190.126 112.048 L 190.261 111.702 L 190.472 111.371 L 190.668 111.023 L 190.954 110.678 L 191.225 110.331 L 191.496 110.06 L 191.842 109.715 L 192.189 109.443 L 192.534 109.171 L 192.941 108.885 L 193.349 108.614 L 193.83 108.403 L 194.311 108.131 L 194.795 107.921 L 195.276 107.786 L 195.833 107.59 L 196.315 107.438 L 196.858 107.304 L 197.415 107.244 L 197.957 107.108 L 198.575 107.032 L 199.191 107.032 L 199.809 106.957 L 200.427 106.957 L 201.045 106.957 L 201.662 107.032 L 202.355 107.032 L 203.048 107.108 L 203.724 107.244 L 204.418 107.304 L 205.111 107.438 L 205.729 107.59 L 206.345 107.786 L 206.963 107.921 L 207.505 108.131 L 208.062 108.403 L 208.605 108.614 L 209.162 108.885 L 209.644 109.171 L 210.126 109.443 L 210.608 109.79 L 211.09 110.121 L 211.498 110.466 L 211.904 110.813 L 212.25 111.159 L 212.597 111.506 L 212.867 111.837 L 213.154 112.183 L 213.349 112.529 L 213.56 112.937 L 213.771 113.284 L 213.966 113.629 L 214.102 113.976 L 214.178 114.383 L 214.313 114.728 L 214.389 115.15 L 214.389 115.557 L 214.389 115.903 L 214.389 116.309 L 214.389 116.717 Z M 213.154 116.309 L 213.154 116.039 L 213.154 115.768 L 213.154 115.557 L 213.079 115.285 L 213.003 115 L 212.942 114.804 L 212.867 114.517 L 212.731 114.322 L 212.597 114.036 L 212.461 113.841 L 212.325 113.569 L 212.115 113.357 L 211.904 113.148 L 211.706 112.937 L 211.423 112.74 L 211.15 112.529 L 210.803 112.318 L 210.472 112.048 L 210.051 111.837 L 209.644 111.641 L 209.162 111.43 L 208.741 111.219 L 208.199 111.084 L 207.716 110.889 L 207.174 110.738 L 206.617 110.602 L 206.075 110.466 L 205.443 110.331 L 204.825 110.196 L 204.148 110.06 L 203.53 109.985 L 202.837 109.924 L 202.083 109.849 L 201.39 109.79 L 200.713 109.715 L 200.095 109.715 L 199.402 109.639 L 198.785 109.639 L 198.228 109.715 L 197.611 109.715 L 197.069 109.79 L 196.512 109.849 L 196.028 109.924 L 195.547 110.06 L 195.004 110.121 L 194.584 110.272 L 194.117 110.408 L 193.696 110.602 L 193.424 110.738 L 193.078 110.889 L 192.867 111.023 L 192.595 111.159 L 192.324 111.371 L 192.112 111.506 L 191.918 111.702 L 191.767 111.912 L 191.571 112.123 L 191.435 112.318 L 191.285 112.529 L 191.225 112.801 L 191.09 113.011 L 191.014 113.284 L 190.954 113.494 L 190.954 113.766 L 190.954 114.036 L 190.954 114.383 L 190.954 114.669 L 190.954 114.94 L 191.014 115.15 L 191.09 115.421 L 191.225 115.691 L 191.36 115.964 L 191.496 116.25 L 191.631 116.445 L 191.842 116.717 L 192.053 116.928 L 192.248 117.199 L 192.534 117.41 L 192.805 117.681 L 193.078 117.892 L 193.424 118.102 L 193.77 118.298 L 194.117 118.509 L 194.523 118.719 L 194.929 118.915 L 195.352 119.066 L 195.833 119.262 L 196.315 119.397 L 196.796 119.548 L 197.339 119.683 L 197.897 119.818 L 198.514 119.955 L 199.131 120.014 L 199.749 120.165 L 200.427 120.226 L 201.12 120.363 L 201.873 120.436 L 202.566 120.497 L 203.243 120.497 L 203.936 120.571 L 204.63 120.571 L 205.246 120.571 L 205.864 120.571 L 206.406 120.497 L 207.024 120.497 L 207.58 120.436 L 208.062 120.363 L 208.545 120.226 L 209.027 120.165 L 209.509 120.014 L 209.915 119.878 L 210.322 119.744 L 210.608 119.608 L 210.954 119.472 L 211.225 119.262 L 211.423 119.127 L 211.706 118.915 L 211.904 118.779 L 212.115 118.584 L 212.325 118.373 L 212.461 118.102 L 212.597 117.892 L 212.731 117.681 L 212.867 117.41 L 212.942 117.139 L 213.003 116.866 L 213.079 116.582 L 213.154 116.309 Z" style="fill: rgb(204, 0, 0);"/><polygon class="fil2" points="208.951 140.363 201.12 137.954 201.257 137.546 201.814 137.681 202.355 137.757 202.912 137.817 203.394 137.892 203.877 137.892 204.283 137.954 204.689 137.954 205.111 137.892 205.443 137.892 205.789 137.817 206.135 137.757 206.481 137.622 206.83 137.471 207.1 137.335 207.37 137.199 207.717 137.004 207.929 136.792 208.199 136.657 208.41 136.37 208.605 136.175 208.741 135.964 208.891 135.694 209.027 135.482 209.087 135.21 209.162 134.865 209.224 134.594 209.224 134.322 209.162 134.036 209.087 133.705 209.027 133.418 208.891 133.148 208.68 132.878 208.468 132.606 208.199 132.319 207.988 132.123 207.717 131.912 207.444 131.777 207.1 131.567 206.83 131.432 206.481 131.355 206.212 131.296 206 131.219 205.729 131.161 205.443 131.161 205.171 131.161 204.976 131.161 204.689 131.219 204.418 131.219 204.071 131.355 203.59 131.506 203.109 131.777 202.567 132.049 202.008 132.319 201.389 132.742 200.714 133.148 200.021 133.63 199.464 134.036 198.921 134.383 198.441 134.729 197.957 135.076 197.55 135.272 197.127 135.559 196.797 135.694 196.512 135.828 195.895 136.099 195.276 136.235 194.585 136.37 193.966 136.446 193.288 136.446 192.596 136.37 191.919 136.235 191.225 136.099 190.608 135.828 189.991 135.617 189.434 135.272 188.891 135.002 188.41 134.594 187.986 134.247 187.58 133.766 187.236 133.359 186.887 132.801 186.616 132.319 186.406 131.837 186.27 131.296 186.209 130.739 186.209 130.256 186.27 129.713 186.406 129.157 186.691 128.539 186.963 127.923 187.038 127.861 187.1 127.725 187.236 127.575 187.309 127.438 187.521 127.244 187.656 127.093 187.85 126.898 188.063 126.626 188.273 126.416 188.468 126.205 188.618 125.994 188.754 125.798 188.816 125.663 188.891 125.528 188.951 125.451 189.025 125.377 189.025 125.18 189.025 125.046 188.951 124.97 188.891 124.834 188.816 124.759 188.754 124.698 188.68 124.624 188.544 124.562 188.273 124.428 187.928 124.276 188.063 123.796 195.895 126.205 195.759 126.626 195.14 126.551 194.523 126.476 193.966 126.416 193.485 126.339 193.017 126.339 192.596 126.281 192.19 126.281 191.842 126.339 191.497 126.339 191.149 126.416 190.817 126.551 190.532 126.626 190.185 126.762 189.915 126.898 189.568 127.093 189.298 127.304 189.025 127.515 188.816 127.725 188.618 127.923 188.41 128.193 188.199 128.48 188.063 128.75 187.928 129.022 187.793 129.292 187.716 129.713 187.656 130.06 187.656 130.391 187.716 130.678 187.793 131.024 187.85 131.355 187.986 131.642 188.199 131.973 188.41 132.258 188.68 132.529 188.951 132.742 189.237 132.937 189.509 133.148 189.855 133.359 190.185 133.495 190.532 133.63 191.014 133.705 191.435 133.766 191.919 133.841 192.325 133.841 192.807 133.766 193.288 133.63 193.77 133.495 194.253 133.284 194.449 133.222 194.659 133.073 194.929 132.937 195.276 132.666 195.697 132.455 196.103 132.185 196.588 131.837 197.127 131.506 197.686 131.161 198.228 130.813 198.711 130.467 199.133 130.196 199.539 129.984 199.945 129.775 200.291 129.578 200.639 129.443 201.257 129.157 201.873 128.96 202.567 128.824 203.182 128.824 203.877 128.75 204.492 128.824 205.171 128.96 205.925 129.157 206.481 129.367 207.024 129.578 207.58 129.848 208.063 130.121 208.545 130.467 208.951 130.875 209.373 131.296 209.704 131.702 210.052 132.185 210.262 132.666 210.472 133.148 210.608 133.63 210.669 134.11 210.669 134.594 210.608 135.076 210.472 135.559 210.322 135.903 210.188 136.175 210.052 136.52 209.839 136.792 209.645 137.139 209.373 137.41 209.087 137.681 208.741 137.954 208.468 138.24 208.274 138.434 208.124 138.584 208.063 138.779 207.988 138.915 208.063 139.052 208.063 139.202 208.199 139.338 208.199 139.398 208.274 139.472 208.41 139.534 208.468 139.608 208.605 139.685 208.741 139.821 209.087 139.957" style="fill: rgb(204, 0, 0);"/><polygon class="fil2" points="200.639 158.858 195.352 156.372 195.547 155.965 195.895 156.101 196.239 156.237 196.512 156.311 196.797 156.447 197.069 156.506 197.264 156.582 197.476 156.582 197.686 156.657 198.228 156.657 198.711 156.657 199.133 156.582 199.539 156.447 199.674 156.372 199.885 156.237 200.021 156.101 200.157 155.965 200.365 155.755 200.427 155.618 200.563 155.407 200.714 155.211 201.738 153.073 184.764 144.625 184.283 144.414 183.801 144.218 183.394 144.006 183.048 143.87 182.701 143.796 182.43 143.735 182.218 143.66 182.008 143.66 181.812 143.66 181.601 143.735 181.465 143.796 181.254 143.932 181.12 144.083 180.984 144.218 180.849 144.414 180.714 144.625 180.442 145.107 179.884 144.835 182.973 138.584 183.588 138.856 183.318 139.398 183.182 139.608 183.182 139.821 183.108 140.091 183.108 140.301 183.182 140.496 183.257 140.708 183.394 140.919 183.53 141.115 183.588 141.251 183.801 141.401 184.011 141.537 184.283 141.732 184.554 141.943 184.899 142.154 185.307 142.351 185.787 142.56 202.761 151.011 203.666 149.233 203.877 148.751 204.012 148.329 204.148 147.997 204.148 147.652 204.148 147.517 204.071 147.306 204.071 147.094 203.936 146.899 203.877 146.687 203.726 146.551 203.59 146.343 203.455 146.13 203.244 145.858 203.048 145.649 202.838 145.452 202.567 145.243 202.294 145.031 201.95 144.835 201.662 144.625 201.331 144.414 201.526 144.006 206.617 146.747" style="fill: rgb(204, 0, 0);"/><path class="fil2" d="M 192.866 170.12 L 192.67 170.468 L 192.385 170.738 L 192.112 171.01 L 191.767 171.219 L 191.435 171.493 L 191.149 171.704 L 190.743 171.839 L 190.397 171.974 L 189.99 172.11 L 189.567 172.245 L 189.161 172.32 L 188.679 172.397 L 188.273 172.455 L 187.792 172.455 L 187.234 172.531 L 186.751 172.455 L 186.209 172.455 L 185.651 172.397 L 185.17 172.245 L 184.628 172.185 L 184.071 172.049 L 183.588 171.914 L 183.048 171.704 L 182.488 171.493 L 182.007 171.296 L 181.464 171.01 L 180.908 170.738 L 180.442 170.468 L 179.884 170.12 L 179.402 169.775 L 178.86 169.43 L 178.301 169.082 L 177.82 168.676 L 177.278 168.194 L 176.796 167.788 L 176.315 167.366 L 175.893 166.958 L 175.485 166.477 L 175.079 166.07 L 174.732 165.588 L 174.387 165.166 L 174.04 164.685 L 173.769 164.219 L 173.498 163.735 L 173.211 163.253 L 172.94 162.771 L 172.73 162.29 L 172.595 161.733 L 172.4 161.251 L 172.264 160.769 L 172.113 160.287 L 172.052 159.805 L 171.977 159.338 L 171.977 158.916 L 171.977 158.509 L 171.977 158.028 L 172.052 157.605 L 172.113 157.199 L 172.264 156.854 L 172.4 156.445 L 172.534 156.099 L 172.73 155.693 L 172.94 155.346 L 173.152 155 L 173.423 154.729 L 173.694 154.383 L 174.04 154.112 L 174.31 153.841 L 174.657 153.63 L 175.003 153.419 L 175.35 153.209 L 175.758 153.073 L 176.178 152.937 L 176.585 152.803 L 176.992 152.666 L 177.414 152.591 L 177.895 152.591 L 178.377 152.53 L 178.86 152.53 L 179.402 152.591 L 179.884 152.591 L 180.442 152.666 L 180.983 152.803 L 181.464 152.877 L 182.007 153.012 L 182.563 153.209 L 183.107 153.36 L 183.588 153.554 L 184.147 153.841 L 184.688 154.112 L 185.245 154.383 L 185.787 154.653 L 186.344 155 L 186.887 155.346 L 187.444 155.754 L 187.986 156.175 L 188.543 156.582 L 189.085 156.99 L 189.567 157.471 L 190.05 157.892 L 190.472 158.373 L 190.954 158.857 L 191.285 159.263 L 191.707 159.744 L 192.053 160.227 L 192.385 160.769 L 192.67 161.251 L 192.941 161.733 L 193.152 162.29 L 193.423 162.771 L 193.559 163.314 L 193.769 163.87 L 193.904 164.278 L 193.966 164.76 L 194.041 165.166 L 194.116 165.649 L 194.116 166.07 L 194.116 166.477 L 194.116 166.883 L 194.116 167.305 L 194.041 167.652 L 193.904 168.058 L 193.83 168.405 L 193.694 168.751 L 193.484 169.157 L 193.348 169.504 L 193.152 169.85 L 192.866 170.12 Z M 191.977 169.157 L 192.189 168.946 L 192.324 168.751 L 192.385 168.465 L 192.534 168.27 L 192.595 167.983 L 192.67 167.788 L 192.73 167.516 L 192.73 167.23 L 192.73 166.958 L 192.73 166.687 L 192.67 166.417 L 192.67 166.13 L 192.595 165.859 L 192.459 165.513 L 192.385 165.243 L 192.248 164.971 L 192.053 164.55 L 191.842 164.144 L 191.631 163.735 L 191.36 163.389 L 191.09 162.966 L 190.817 162.56 L 190.472 162.154 L 190.126 161.733 L 189.717 161.326 L 189.297 160.904 L 188.891 160.498 L 188.408 160.09 L 187.986 159.67 L 187.444 159.263 L 186.887 158.857 L 186.344 158.434 L 185.787 157.953 L 185.245 157.605 L 184.688 157.199 L 184.147 156.854 L 183.588 156.506 L 183.048 156.175 L 182.488 155.889 L 182.007 155.617 L 181.464 155.406 L 180.983 155.211 L 180.501 155 L 180.02 154.865 L 179.537 154.729 L 179.056 154.594 L 178.649 154.459 L 178.167 154.383 L 177.55 154.307 L 176.932 154.307 L 176.375 154.383 L 175.832 154.518 L 175.35 154.729 L 174.928 155 L 174.522 155.346 L 174.175 155.754 L 174.04 155.964 L 173.829 156.236 L 173.769 156.506 L 173.633 156.717 L 173.558 156.99 L 173.498 157.275 L 173.423 157.546 L 173.423 157.817 L 173.423 158.164 L 173.423 158.434 L 173.498 158.78 L 173.498 159.052 L 173.633 159.397 L 173.694 159.744 L 173.829 160.09 L 173.98 160.438 L 174.115 160.769 L 174.31 161.116 L 174.522 161.462 L 174.732 161.808 L 175.003 162.215 L 175.274 162.56 L 175.622 162.966 L 175.968 163.314 L 176.315 163.735 L 176.721 164.067 L 177.127 164.489 L 177.55 164.895 L 178.031 165.318 L 178.573 165.724 L 179.056 166.13 L 179.613 166.551 L 180.23 167.034 L 180.848 167.44 L 181.389 167.788 L 181.947 168.194 L 182.488 168.54 L 183.048 168.887 L 183.588 169.157 L 184.147 169.43 L 184.628 169.639 L 185.11 169.911 L 185.591 170.12 L 186.073 170.256 L 186.555 170.392 L 187.038 170.528 L 187.444 170.604 L 187.85 170.663 L 188.198 170.738 L 188.543 170.738 L 188.891 170.738 L 189.161 170.738 L 189.432 170.738 L 189.717 170.663 L 189.99 170.604 L 190.261 170.528 L 190.532 170.392 L 190.743 170.256 L 191.014 170.12 L 191.225 169.986 L 191.435 169.85 L 191.631 169.639 L 191.842 169.43 L 191.977 169.157 Z" style="fill: rgb(204, 0, 0);"/><polygon class="fil2" points="175.08 185.032 173.77 189.776 173.499 190.047 160.577 174.038 160.23 173.693 159.957 173.345 159.672 173.014 159.477 172.803 159.266 172.531 159.13 172.397 158.995 172.245 158.861 172.11 158.649 171.974 158.438 171.914 158.241 171.84 157.956 171.84 157.895 171.84 157.76 171.914 157.55 171.974 157.413 172.049 157.277 172.11 157.067 172.245 156.858 172.397 156.661 172.531 156.239 172.049 161.058 168.134 161.464 168.616 161.255 168.812 161.058 169.024 160.923 169.158 160.771 169.294 160.636 169.43 160.577 169.564 160.501 169.716 160.501 169.851 160.442 170.047 160.442 170.256 160.501 170.469 160.577 170.665 160.636 170.813 160.712 170.95 160.849 171.147 160.984 171.432 161.255 171.705 161.464 172.049 161.737 172.397 162.082 172.803 170.397 182.968 170.741 183.526 171.149 183.933 171.496 184.34 171.782 184.686 172.052 184.973 172.264 185.244 172.459 185.438 172.595 185.588 172.805 185.724 173.015 185.859 173.213 185.996 173.363 186.072 173.558 186.072 173.694 186.072 173.829 185.996 173.98 185.921 174.041 185.785 174.115 185.724 174.251 185.588 174.311 185.438 174.388 185.303 174.463 185.108 174.523 184.897 174.598 184.686" style="fill: rgb(204, 0, 0);"/><path class="fil2" d="M 156.585 186.824 L 157.278 187.02 L 157.896 187.307 L 158.514 187.502 L 159.056 187.788 L 159.537 187.983 L 159.96 188.27 L 160.367 188.467 L 160.637 188.751 L 161.255 189.219 L 161.737 189.701 L 162.219 190.318 L 162.641 190.95 L 162.912 191.417 L 163.182 191.975 L 163.393 192.458 L 163.529 192.939 L 163.604 193.481 L 163.663 193.963 L 163.663 194.52 L 163.663 195.062 L 163.604 195.543 L 163.454 196.026 L 163.318 196.448 L 163.047 196.855 L 162.776 197.201 L 162.505 197.548 L 162.083 197.88 L 161.677 198.165 L 161.255 198.361 L 160.849 198.571 L 160.367 198.706 L 159.96 198.706 L 159.537 198.782 L 159.056 198.706 L 158.574 198.647 L 158.168 198.436 L 157.685 198.3 L 157.278 198.029 L 156.858 197.744 L 156.525 197.472 L 156.179 197.201 L 155.833 196.78 L 155.562 196.448 L 155.275 196.026 L 155.08 195.679 L 154.944 195.408 L 154.794 195.062 L 154.733 194.792 L 154.523 194.038 L 154.388 193.345 L 154.388 192.939 L 154.388 192.458 L 154.463 191.975 L 154.523 191.493 L 154.598 190.95 L 154.733 190.394 L 154.869 189.776 L 155.08 189.083 L 154.327 188.887 L 153.634 188.602 L 153.016 188.406 L 152.459 188.195 L 151.916 187.983 L 151.435 187.713 L 151.089 187.502 L 150.682 187.307 L 150.261 187.02 L 149.93 186.748 L 149.508 186.403 L 149.16 186.072 L 148.814 185.725 L 148.543 185.379 L 148.196 184.971 L 148.002 184.55 L 147.654 184.008 L 147.384 183.451 L 147.173 182.909 L 147.037 182.352 L 146.961 181.809 L 146.903 181.252 L 146.827 180.71 L 146.903 180.152 L 146.961 179.611 L 147.097 179.128 L 147.309 178.647 L 147.52 178.225 L 147.79 177.817 L 148.137 177.471 L 148.483 177.124 L 148.965 176.854 L 149.16 176.718 L 149.446 176.584 L 149.718 176.447 L 149.989 176.372 L 150.201 176.311 L 150.472 176.236 L 150.742 176.236 L 151.029 176.236 L 151.3 176.236 L 151.571 176.236 L 151.781 176.311 L 152.052 176.372 L 152.322 176.447 L 152.595 176.507 L 152.881 176.642 L 153.152 176.793 L 153.634 177.065 L 154.041 177.335 L 154.388 177.606 L 154.794 177.954 L 155.14 178.3 L 155.426 178.647 L 155.697 179.053 L 155.968 179.474 L 156.179 179.805 L 156.374 180.152 L 156.525 180.573 L 156.661 180.904 L 156.796 181.327 L 156.858 181.734 L 156.932 182.141 L 157.007 182.563 L 157.007 182.968 L 157.007 183.451 L 157.007 183.932 L 157.007 184.489 L 156.932 185.031 L 156.796 185.59 L 156.722 186.207 L 156.585 186.824 Z M 155.908 189.431 L 155.833 189.987 L 155.833 190.529 L 155.758 191.011 L 155.758 191.493 L 155.758 191.9 L 155.758 192.321 L 155.833 192.669 L 155.908 192.939 L 156.043 193.481 L 156.239 194.099 L 156.525 194.656 L 156.858 195.273 L 157.069 195.679 L 157.339 196.026 L 157.551 196.298 L 157.821 196.585 L 158.107 196.855 L 158.377 197.066 L 158.65 197.262 L 158.92 197.397 L 159.206 197.548 L 159.477 197.607 L 159.824 197.607 L 160.094 197.607 L 160.367 197.607 L 160.637 197.548 L 160.924 197.397 L 161.12 197.262 L 161.405 197.126 L 161.601 196.93 L 161.813 196.72 L 161.948 196.508 L 162.083 196.237 L 162.219 195.966 L 162.294 195.679 L 162.354 195.349 L 162.354 195.062 L 162.354 194.731 L 162.354 194.386 L 162.294 194.099 L 162.158 193.768 L 162.083 193.481 L 161.948 193.211 L 161.737 192.864 L 161.542 192.518 L 161.195 192.11 L 160.924 191.764 L 160.577 191.493 L 160.156 191.146 L 159.749 190.875 L 159.342 190.665 L 158.861 190.469 L 155.908 189.431 Z M 155.758 186.553 L 155.833 185.725 L 155.833 184.971 L 155.758 184.204 L 155.697 183.796 L 155.622 183.451 L 155.562 183.104 L 155.487 182.697 L 155.35 182.352 L 155.215 181.946 L 154.869 181.252 L 154.463 180.498 L 154.176 180.017 L 153.845 179.611 L 153.559 179.188 L 153.227 178.842 L 152.881 178.51 L 152.534 178.225 L 152.188 178.029 L 151.841 177.817 L 151.496 177.683 L 151.165 177.547 L 150.817 177.471 L 150.472 177.41 L 150.124 177.471 L 149.854 177.471 L 149.582 177.606 L 149.298 177.743 L 149.024 177.954 L 148.753 178.09 L 148.543 178.376 L 148.408 178.571 L 148.272 178.842 L 148.137 179.128 L 148.061 179.399 L 148.002 179.746 L 148.002 180.092 L 148.002 180.423 L 148.061 180.769 L 148.137 181.042 L 148.196 181.387 L 148.347 181.734 L 148.483 182.08 L 148.678 182.427 L 149.024 182.909 L 149.373 183.39 L 149.779 183.796 L 150.261 184.144 L 150.682 184.414 L 151.223 184.685 L 151.841 185.031 L 152.459 185.304 L 153.227 185.59 L 153.981 185.921 L 154.869 186.207 L 155.758 186.553 Z" style="fill: rgb(204, 0, 0);"/><path class="fil2" d="M 143.393 207.021 L 143.182 206.479 L 143.468 206.209 L 143.799 205.998 L 144.085 205.786 L 144.356 205.576 L 144.627 205.305 L 144.838 205.11 L 145.049 204.823 L 145.185 204.551 L 145.381 204.28 L 145.516 204.009 L 145.666 203.723 L 145.804 203.376 L 145.938 203.046 L 145.998 202.624 L 146.149 202.278 L 146.21 201.872 L 146.345 200.981 L 146.48 200.079 L 146.555 199.189 L 146.48 198.301 L 146.421 197.263 L 146.285 196.237 L 146.149 195.138 L 145.862 193.964 L 145.666 194.522 L 145.381 195.063 L 145.11 195.486 L 144.762 195.892 L 144.417 196.237 L 144.085 196.508 L 143.74 196.78 L 143.318 196.992 L 142.911 197.127 L 142.504 197.201 L 142.083 197.201 L 141.674 197.127 L 141.268 196.992 L 140.787 196.855 L 140.366 196.585 L 139.883 196.298 L 139.401 195.892 L 138.92 195.486 L 138.513 195.063 L 138.106 194.581 L 137.76 194.039 L 137.413 193.421 L 137.067 192.728 L 136.721 192.051 L 136.449 191.359 L 136.239 190.666 L 136.043 189.987 L 135.907 189.295 L 135.832 188.602 L 135.773 187.925 L 135.773 187.233 L 135.773 186.553 L 135.832 186.134 L 135.907 185.725 L 135.968 185.379 L 136.043 185.032 L 136.103 184.686 L 136.239 184.34 L 136.39 184.069 L 136.525 183.798 L 136.661 183.527 L 136.871 183.316 L 137.067 183.046 L 137.277 182.834 L 137.489 182.697 L 137.76 182.488 L 138.031 182.352 L 138.302 182.216 L 138.65 182.08 L 139.07 182.004 L 139.476 182.004 L 139.883 182.004 L 140.305 182.08 L 140.712 182.216 L 141.118 182.427 L 141.54 182.623 L 141.948 182.909 L 142.367 183.181 L 142.776 183.452 L 143.182 183.798 L 143.528 184.145 L 143.875 184.49 L 144.221 184.897 L 144.567 185.304 L 144.898 185.725 L 145.185 186.134 L 145.516 186.615 L 145.804 187.097 L 146.074 187.653 L 146.345 188.12 L 146.616 188.677 L 146.903 189.295 L 147.173 189.987 L 147.444 190.741 L 147.654 191.495 L 147.866 192.246 L 148.061 193 L 148.196 193.768 L 148.347 194.522 L 148.408 195.274 L 148.483 196.027 L 148.483 196.72 L 148.483 197.473 L 148.483 198.166 L 148.408 198.919 L 148.347 199.597 L 148.196 200.289 L 148.061 200.981 L 147.926 201.6 L 147.715 202.217 L 147.52 202.759 L 147.309 203.317 L 147.097 203.799 L 146.827 204.205 L 146.616 204.626 L 146.345 204.959 L 146.074 205.305 L 145.804 205.576 L 145.516 205.862 L 145.244 206.058 L 144.898 206.269 L 144.627 206.479 L 144.356 206.615 L 144.085 206.751 L 143.393 207.021 Z M 145.592 192.728 L 145.381 192.187 L 145.244 191.629 L 145.049 191.147 L 144.898 190.666 L 144.762 190.26 L 144.567 189.851 L 144.417 189.431 L 144.281 189.083 L 143.95 188.332 L 143.528 187.503 L 142.986 186.69 L 142.429 185.86 L 142.158 185.44 L 141.886 185.108 L 141.599 184.761 L 141.268 184.415 L 140.983 184.145 L 140.651 183.874 L 140.366 183.662 L 140.094 183.452 L 139.824 183.316 L 139.612 183.241 L 139.401 183.181 L 139.206 183.181 L 138.995 183.181 L 138.784 183.181 L 138.589 183.181 L 138.376 183.316 L 138.106 183.391 L 137.895 183.587 L 137.76 183.723 L 137.548 184.009 L 137.413 184.28 L 137.338 184.626 L 137.202 184.973 L 137.142 185.379 L 137.142 185.785 L 137.142 186.207 L 137.202 186.69 L 137.277 187.233 L 137.413 187.714 L 137.548 188.271 L 137.76 188.888 L 138.031 189.506 L 138.302 190.184 L 138.65 190.802 L 138.92 191.419 L 139.267 191.976 L 139.688 192.518 L 140.019 193.075 L 140.366 193.557 L 140.787 193.964 L 140.983 194.175 L 141.193 194.387 L 141.404 194.522 L 141.599 194.657 L 141.811 194.793 L 141.948 194.928 L 142.158 195.004 L 142.367 195.138 L 142.564 195.138 L 142.7 195.199 L 142.911 195.199 L 143.122 195.274 L 143.257 195.199 L 143.468 195.199 L 143.663 195.138 L 143.799 195.063 L 144.01 195.004 L 144.221 194.868 L 144.417 194.657 L 144.627 194.446 L 144.702 194.311 L 144.838 194.175 L 144.898 193.964 L 145.049 193.768 L 145.185 193.557 L 145.32 193.286 L 145.455 193 L 145.592 192.728 Z" style="fill: rgb(204, 0, 0);"/><path class="fil2" d="M 124.145 196.163 L 123.466 193.693 L 125.591 193.075 L 123.948 186.884 L 125.861 186.403 L 127.593 192.594 L 134.326 190.8 L 134.868 193 L 131.644 210.531 L 130.41 210.877 L 126.283 195.545 L 124.145 196.163 Z M 128.21 195.063 L 131.358 206.751 L 133.769 193.557 L 128.21 195.063 Z" style="fill: rgb(204, 0, 0);"/><polygon class="fil2" points="86.221 45.252 86.221 84.095 47.378 84.095 47.378 122.921 86.221 122.921 86.221 161.763 125.047 161.763 125.047 122.921 163.89 122.921 163.89 84.095 125.047 84.095 125.047 45.252" style="fill: rgb(204, 0, 0);"/></g></g></svg>